<svg width="82" height="61" viewBox="0 0 82 61" fill="none" xmlns="http://www.w3.org/2000/svg">
<path d="M5.23234 33.6694C7.62349 36.0775 10.7476 37.6239 14.1139 38.0657C13.4316 40.7538 12.2183 43.2784 10.5452 45.4912C8.43649 48.7961 5.76689 51.7081 2.65642 54.0962C2.75821 55.4916 3.22261 56.8363 4.00377 57.9976C4.78493 59.1588 5.8558 60.0963 7.11061 60.7175C13.0553 58.7967 18.4365 55.4459 22.7808 50.9598C27.5808 46.3258 31.5232 40.8807 34.4261 34.8757C37.1206 29.5486 38.5875 23.6865 38.7193 17.7193C38.8237 15.3087 38.3973 12.9045 37.47 10.6766C36.5427 8.44862 35.1372 6.45116 33.3528 4.82521C29.6399 1.61497 24.8428 -0.0623982 19.9365 0.134009C17.2408 0.129225 14.5773 0.720407 12.1372 1.86516C9.69705 3.00991 7.54067 4.67987 5.82266 6.7553C2.06447 10.7073 -0.0462798 15.9408 -0.0804905 21.3918C-0.18081 23.7063 0.245109 26.0134 1.16528 28.1399C2.08545 30.2663 3.47595 32.1568 5.23234 33.6694Z" fill="#4A4B4B"/>
<path d="M48.4058 33.6694C50.7969 36.0775 53.921 37.6239 57.2873 38.0657C56.605 40.7538 55.3917 43.2784 53.7186 45.4912C51.624 48.7736 48.9938 51.6822 45.9372 54.0962C46.02 55.4967 46.4769 56.8495 47.2602 58.0139C48.0435 59.1783 49.1247 60.1119 50.3914 60.7175C59.4443 57.5709 67.1936 51.5075 72.4208 43.4807C78.8069 34.5808 82 26.6728 82 19.7566C82 12.8405 80.2112 7.81865 76.6335 4.69118C72.9085 1.50203 68.12 -0.172353 63.2173 -2.45302e-05C60.5215 -0.00480458 57.8581 0.586374 55.4179 1.73113C52.9778 2.87587 50.8214 4.54583 49.1034 6.62127C45.3452 10.5733 43.2345 15.8067 43.2003 21.2578C43.0661 23.5859 43.4653 25.9138 44.3673 28.0646C45.2694 30.2153 46.6505 32.1322 48.4058 33.6694Z" fill="#4A4B4B"/>
</svg>
