<svg width="662" height="497" viewBox="0 0 662 497" fill="none" xmlns="http://www.w3.org/2000/svg">
<path d="M113.281 470.817C113.281 470.817 30.9555 412.185 7.26163 312.405C-16.4323 212.626 19.7416 91.6088 88.3364 30.5503C156.931 -30.5082 280.435 10.4888 335.314 61.7352L390.208 112.876C390.208 112.876 442.599 141.514 511.194 139.072C579.789 136.63 640.923 230.064 657.156 303.663C673.389 377.262 634.698 474.555 634.698 474.555L113.281 470.817Z" fill="#EAF7EE"/>
<g style="mix-blend-mode:multiply">
<path d="M75.8729 485.782C75.8729 485.782 18.492 454.597 3.52507 382.25C-11.4419 309.902 53.4149 243.794 59.6549 207.62C65.8949 171.446 52.1187 126.53 109.545 91.5622C166.971 56.5941 269.207 69.1645 307.883 60.4225C346.559 51.6805 391.46 -8.17228 468.751 5.54366C546.043 19.2596 620.983 60.4225 624.661 150.239C628.339 240.056 599.761 242.603 628.52 291.197C657.278 339.79 668.431 373.523 654.715 423.412C641 473.302 612.302 487.033 612.302 487.033L75.8729 485.782Z" fill="#EAF7EE"/>
</g>
<g style="mix-blend-mode:multiply">
<path d="M195.683 469.567C192.111 465.829 139.764 361.045 198.05 265.003C256.335 168.962 402.703 180.176 461.004 217.601C519.304 255.025 547.851 303.664 553.805 354.76C559.758 405.856 520.48 485.74 520.48 485.74L195.683 469.567Z" fill="#DDECFF"/>
</g>
<path d="M606.151 244.516H538.898C534.735 244.516 531.361 247.89 531.361 252.053V285.634C531.361 289.796 534.735 293.17 538.898 293.17H606.151C610.313 293.17 613.687 289.796 613.687 285.634V252.053C613.687 247.89 610.313 244.516 606.151 244.516Z" fill="#28B781"/>
<path d="M572.524 312.195L583.195 286.933H561.868L572.524 312.195Z" fill="#2B2C2F"/>
<path d="M572.284 260.495H591.532V263.313L600.967 257.872L591.532 252.416V255.234H572.284V260.495Z" fill="#434956"/>
<path d="M600.967 271.557H581.72V268.739L572.284 274.18L581.72 279.621V276.803H600.967V271.557Z" fill="white"/>
<path d="M560.467 276.52L559.547 276.852C557.791 274.793 556.33 272.5 555.206 270.039C554.268 267.508 553.759 264.839 553.699 262.141L554.362 261.87L550.293 252.118C549.5 252.736 548.83 253.498 548.318 254.363C546.012 258.252 546.253 264.236 548.559 270.069C550.866 275.902 553.352 281.117 557.874 284.388C558.808 285.152 559.885 285.722 561.042 286.064C562.199 286.405 563.413 286.512 564.612 286.377L560.467 276.52Z" fill="#434956"/>
<path d="M563.376 275.373L562.11 275.825L566.285 285.803C566.722 285.658 567.145 285.476 567.551 285.26C568.068 284.976 568.463 284.512 568.662 283.958C568.862 283.403 568.853 282.794 568.637 282.246L566.466 276.76C566.234 276.171 565.78 275.697 565.203 275.438C564.626 275.179 563.971 275.156 563.376 275.373Z" fill="#434956"/>
<path d="M553.458 250.413C552.888 250.618 552.338 250.876 551.815 251.182L555.975 261.13L557.377 260.542C557.959 260.295 558.422 259.831 558.67 259.249C558.917 258.668 558.929 258.012 558.703 257.422L556.518 251.815C556.288 251.231 555.841 250.759 555.27 250.497C554.7 250.236 554.05 250.206 553.458 250.413Z" fill="#434956"/>
<path d="M176.224 452.729V340.47C176.224 340.47 174.988 310.219 190.889 301.477C206.79 292.735 273.788 297.423 273.788 297.423V452.669L176.224 452.729Z" fill="#28B781"/>
<path d="M294.785 192.339C294.785 192.339 290.73 226.327 289.163 229.131L287.655 231.95L279.863 237.24C279.863 237.24 294.83 258.447 313.233 261.883C331.637 265.32 330.069 254.347 330.069 254.347L327.266 248.424L331.004 215.988C331.004 215.988 297.588 200.765 294.785 192.339Z" fill="#FED8B6"/>
<path d="M270.14 240.059L282.304 234.754C282.304 234.754 290.096 247.535 308.183 255.026C326.27 262.517 326.586 258.146 327.521 255.026C328.034 252.856 327.93 250.584 327.22 248.47L328.546 237.557L335.781 239.969L360.891 443.07L296.336 446.19L270.14 240.059Z" fill="white"/>
<path d="M329.707 237.769C329.707 237.769 334.078 247.852 338.133 271.546C342.187 295.24 345.925 335.167 346.859 362.614C347.794 390.061 348.367 452.732 348.367 452.732H429.758C430.708 452.732 436.315 421.864 436.315 421.864C436.315 421.864 400.759 391.402 398.89 386.413C397.639 383.082 398.272 321.451 392.966 293.07C387.661 264.688 380.803 258.976 366.454 251.907C351.683 244.597 329.707 237.769 329.707 237.769Z" fill="#434956"/>
<path d="M372.121 416.993C371.921 416.993 371.729 416.914 371.588 416.772C371.447 416.631 371.367 416.439 371.367 416.24C371.367 414.009 370.975 382.342 370.584 351.699C370.192 321.057 369.8 289.375 369.8 287.144C369.8 286.944 369.879 286.752 370.021 286.611C370.162 286.47 370.354 286.39 370.553 286.39C370.753 286.39 370.945 286.47 371.086 286.611C371.228 286.752 371.307 286.944 371.307 287.144C371.307 289.375 371.714 321.042 372.091 351.684C372.468 382.327 372.875 414.009 372.875 416.24C372.875 416.439 372.795 416.631 372.654 416.772C372.513 416.914 372.321 416.993 372.121 416.993Z" fill="#8593B6"/>
<path d="M209.956 409.382L209.338 452.731H304.144C304.144 452.731 308.184 415.924 306.631 412.502C305.079 409.081 209.956 409.382 209.956 409.382Z" fill="#434956"/>
<g style="mix-blend-mode:multiply">
<path d="M315.464 228.192C319.496 231.231 323.969 233.635 328.728 235.321L330.958 216.029C330.958 216.029 305.893 204.559 297.392 196.012C299.171 205.719 303.542 218.576 315.464 228.192Z" fill="#8E9BBB"/>
</g>
<path d="M360.228 129.034C364.423 136.763 367.07 145.236 368.02 153.979C369.271 167.71 368.02 202.934 356.791 217.916C345.562 232.898 322.125 228.467 311.574 219.423C301.837 211.118 292.236 201.954 289.749 183.867C287.262 165.78 295.055 131.49 317.181 124.316C339.307 117.141 360.228 129.034 360.228 129.034Z" fill="#FED9B6"/>
<path d="M388.399 433.12C388.399 433.12 387.298 433.12 385.625 433.12H384.344L378.798 432.969H377.471C375.512 432.969 373.839 433.165 372.271 433.075C371.94 433.075 371.457 433.075 371.065 433.075C370.9 433.089 370.734 433.089 370.568 433.075C369.842 432.91 369.146 432.636 368.503 432.261C357.913 429.551 347.042 428.089 336.112 427.905C322.185 427.905 309.69 428.915 307.656 427.212C305.621 425.509 304.37 407.979 316.262 406.834L330.882 412.38C330.882 412.38 364.268 408.401 376.507 417.445C388.745 426.488 388.399 433.12 388.399 433.12Z" fill="#FF9D8C"/>
<path d="M372.288 432.971C371.956 432.971 371.474 432.971 371.082 432.971C370.699 432.367 370.271 431.792 369.801 431.253C366.033 427.409 356.929 424.922 353.628 424.123C353.483 424.088 353.358 423.997 353.279 423.87C353.201 423.743 353.174 423.591 353.206 423.445C353.224 423.372 353.256 423.303 353.3 423.242C353.345 423.181 353.401 423.129 353.465 423.09C353.53 423.051 353.601 423.025 353.676 423.013C353.75 423.002 353.826 423.005 353.899 423.023C358.708 424.184 368.972 427.153 371.805 432.067C371.836 432.202 372.077 432.669 372.288 432.971Z" fill="#223A7A"/>
<path d="M378.798 432.908C378.361 432.908 377.908 432.908 377.471 432.908C373.357 425.372 366.634 423.247 358.314 420.579L357.817 420.413C357.675 420.362 357.559 420.258 357.492 420.124C357.424 419.989 357.411 419.834 357.455 419.69C357.506 419.548 357.61 419.432 357.745 419.365C357.879 419.298 358.035 419.284 358.179 419.328L358.661 419.494C367.448 422.282 374.532 424.543 378.798 432.908Z" fill="#223A7A"/>
<path d="M385.626 433.076H384.345C382.078 429.014 378.973 425.481 375.236 422.711C371.5 419.941 367.216 417.997 362.671 417.009C362.596 416.996 362.525 416.969 362.462 416.929C362.398 416.889 362.343 416.836 362.299 416.775C362.256 416.713 362.225 416.643 362.209 416.57C362.192 416.496 362.19 416.42 362.203 416.346C362.233 416.199 362.319 416.069 362.443 415.984C362.567 415.9 362.719 415.867 362.867 415.894C374.111 417.989 383.199 427.183 385.626 433.076Z" fill="#223A7A"/>
<path d="M297.271 168.48C302.329 165.589 306.404 161.247 308.967 156.015C311.837 150.667 313.29 144.674 313.187 138.606C313.187 138.606 321.914 137.204 335.012 141.108C348.11 145.012 363.65 150.302 376.793 142.811C389.936 135.32 389.891 123.323 383.501 118.334C376.341 112.742 362.143 116.148 362.143 116.148C362.143 116.148 367.599 110.858 364.63 107.738C361.661 104.618 350.914 108.672 350.914 108.672C350.914 108.672 337.816 98.227 313.022 99.463C288.227 100.699 276.381 118.032 274.979 137.355C273.577 156.678 280.586 176.031 280.586 176.031L297.271 168.48Z" fill="#434956"/>
<g style="mix-blend-mode:multiply">
<path d="M347.566 173.166C346.164 176.632 346.194 180.702 345.848 184.334C345.576 187.183 345.049 190.529 347.671 192.458C348.923 193.378 354.831 195.865 351.786 197.885C350.391 198.465 348.86 198.637 347.37 198.382L344.627 198.231C343.647 198.156 342.698 197.854 341.718 197.854C341.596 197.859 341.479 197.903 341.383 197.978C341.288 198.054 341.219 198.159 341.187 198.277C341.155 198.394 341.162 198.519 341.205 198.633C341.249 198.747 341.329 198.844 341.431 198.909C343.199 199.813 345.159 200.279 347.144 200.266C348.768 200.442 350.409 200.155 351.877 199.437C352.412 199.246 352.891 198.924 353.271 198.5C353.65 198.076 353.917 197.564 354.047 197.01C354.05 196.339 353.879 195.678 353.552 195.092C353.224 194.506 352.751 194.014 352.178 193.664C351.003 192.79 349.556 192.383 348.365 191.539C346.707 190.348 346.858 188.359 346.963 186.52C347.249 182.089 348.259 177.733 348.651 173.316C348.727 172.638 347.792 172.638 347.566 173.166Z" fill="#8E9BBB"/>
</g>
<path d="M360.319 183.536C359.852 186.174 357.938 188.058 356.054 187.696C354.17 187.334 353.039 184.953 353.461 182.33C353.883 179.708 355.843 177.808 357.727 178.17C359.611 178.532 360.786 180.913 360.319 183.536Z" fill="#2B2C2F"/>
<path d="M336.459 181.454C336.037 184.288 334.032 186.337 331.937 185.976C329.842 185.614 328.576 183.127 328.923 180.293C329.269 177.46 331.349 175.41 333.444 175.772C335.539 176.133 336.881 178.62 336.459 181.454Z" fill="#2B2C2F"/>
<path d="M354.774 172.699C356.233 172.81 357.697 172.845 359.16 172.805C359.521 172.805 359.868 172.805 360.215 172.91C360.561 173.016 359.747 172.835 360.094 172.91H360.32L360.878 173.031C361.194 173.106 361.496 173.227 361.797 173.287C362.086 173.372 362.386 173.412 362.687 173.408H363.169H362.867C363.068 173.435 363.27 173.435 363.47 173.408C363.873 173.288 364.214 173.018 364.422 172.652C364.63 172.287 364.689 171.856 364.586 171.448C364.521 171.215 364.413 170.995 364.269 170.8L364.073 170.559L364.254 170.77L364.058 170.514C363.984 170.372 363.868 170.256 363.727 170.182C363.606 170.092 363.501 169.986 363.38 169.911C362.961 169.656 362.503 169.473 362.023 169.368C361.147 169.14 360.246 169.024 359.341 169.022C358.452 169.031 357.566 169.102 356.688 169.233C355.872 169.327 355.091 169.616 354.412 170.077C354.161 170.233 353.962 170.459 353.839 170.726C353.716 170.994 353.674 171.293 353.718 171.584C353.749 171.871 353.867 172.141 354.055 172.359C354.244 172.578 354.494 172.733 354.774 172.805V172.699Z" fill="#2B2C2F"/>
<path d="M338.132 168.524L337.53 168.223C337.349 168.133 336.866 167.876 337.228 168.087L336.821 167.861C336.22 167.571 335.588 167.349 334.937 167.198C333.509 166.842 332.03 166.74 330.566 166.897C329.041 167.018 327.562 167.481 326.24 168.253C326.042 168.352 325.86 168.479 325.698 168.63L325.381 169.037L325.472 168.901C325.263 169.042 325.093 169.233 324.977 169.457C324.861 169.681 324.803 169.93 324.808 170.182C324.806 170.413 324.868 170.64 324.988 170.837C325.108 171.034 325.281 171.194 325.487 171.298C325.724 171.402 325.981 171.456 326.24 171.456C326.5 171.456 326.756 171.402 326.994 171.298H326.21C326.598 171.381 326.998 171.381 327.386 171.298C327.386 171.298 327.808 171.192 327.537 171.298C327.265 171.403 327.959 171.298 328.034 171.298C328.109 171.298 328.592 171.298 328.034 171.298H328.305H329.014C330.054 171.222 331.079 171.177 332.028 171.132C332.978 171.087 333.957 171.132 334.922 171.132C335.329 171.132 335.736 171.132 336.143 171.132C336.279 171.132 336.55 171.132 336.143 171.132H336.414L336.912 171.298C337.25 171.393 337.611 171.36 337.926 171.204C338.24 171.048 338.486 170.78 338.615 170.454C338.74 170.131 338.749 169.774 338.642 169.445C338.535 169.115 338.318 168.833 338.027 168.645L338.132 168.524Z" fill="#2B2C2F"/>
<path d="M345.533 211.89C347.082 209.024 349.574 206.782 352.587 205.545C349.965 205.273 337.635 204.128 334.5 205.906C331.019 207.881 335.148 215.824 342.353 216.231C343.059 216.269 343.766 216.229 344.463 216.11C344.518 214.644 344.882 213.206 345.533 211.89Z" fill="#2B2C2F"/>
<path d="M288.543 195.141C288.543 195.141 289.794 199.979 296.969 205.586C302.407 209.526 308.303 212.79 314.528 215.308L315.357 211.675C315.357 211.675 304.611 206.988 299.622 201.848C294.633 196.708 294 193.89 294 193.89L288.543 195.141Z" fill="#DEE1EB"/>
<path d="M316.608 208.98C318.787 208.851 320.939 209.513 322.668 210.845C324.396 212.178 325.585 214.09 326.014 216.23C326.405 219.245 323.632 222.5 317.151 219.591C309.087 215.974 310.836 209.252 316.608 208.98Z" fill="#2B2C2F"/>
<path d="M293.065 159.437C293.065 159.437 295.552 141.516 307.564 129.292C330.49 106.051 349.978 107.452 349.978 107.452C349.978 107.452 349.828 104.182 342.442 101.695C335.569 99.3434 332.464 100.594 332.464 100.594C332.464 100.594 313.608 102.102 297.692 119.782C281.775 137.462 280.072 159.844 280.072 159.844L293.065 159.437Z" fill="#DEE1EB"/>
<path d="M291.348 157.248C276.276 154.715 267.971 166.457 267.338 178.349C266.705 190.241 275.326 199.209 286.827 198.305C312.706 196.24 309.752 160.368 291.348 157.248Z" fill="white"/>
<path d="M283.873 186.746C281.976 186.776 280.108 186.277 278.479 185.305C276.85 184.334 275.524 182.928 274.648 181.245C273.64 179.427 273.149 177.368 273.226 175.291C273.303 173.213 273.946 171.197 275.085 169.458C275.123 169.387 275.176 169.324 275.24 169.274C275.304 169.224 275.377 169.189 275.456 169.169C275.535 169.15 275.617 169.148 275.696 169.163C275.776 169.178 275.852 169.209 275.918 169.255C275.985 169.301 276.041 169.361 276.082 169.431C276.124 169.5 276.151 169.578 276.16 169.658C276.17 169.738 276.162 169.82 276.138 169.897C276.114 169.975 276.074 170.046 276.02 170.106C275.004 171.665 274.432 173.47 274.366 175.329C274.299 177.188 274.741 179.03 275.643 180.657C276.437 182.21 277.664 183.5 279.175 184.372C280.686 185.244 282.417 185.66 284.159 185.571C285.781 185.565 287.377 185.159 288.805 184.388C290.232 183.618 291.448 182.507 292.343 181.154C293.397 179.532 294.059 177.686 294.276 175.763C294.493 173.84 294.26 171.893 293.594 170.076C292.972 168.371 291.816 166.911 290.298 165.915C288.78 164.918 286.981 164.438 285.169 164.545C285.021 164.562 284.873 164.521 284.755 164.431C284.637 164.341 284.558 164.209 284.536 164.062C284.525 163.988 284.53 163.912 284.549 163.839C284.569 163.767 284.603 163.699 284.649 163.64C284.696 163.581 284.754 163.531 284.82 163.495C284.886 163.459 284.958 163.437 285.033 163.429C287.099 163.269 289.16 163.794 290.898 164.922C292.635 166.049 293.954 167.718 294.649 169.669C295.366 171.648 295.616 173.766 295.38 175.857C295.145 177.948 294.431 179.957 293.293 181.727C292.301 183.223 290.959 184.454 289.382 185.313C287.806 186.172 286.044 186.633 284.249 186.656L283.873 186.746Z" fill="#818FB3"/>
<path d="M272.96 235.688C272.96 235.688 227.426 246.916 211.525 265.003C195.623 283.09 188.132 372.229 187.816 388.809C187.499 405.388 199.045 412.201 205.903 416.889C212.761 421.576 243.011 429.987 267.338 431.223C291.665 432.458 314.741 431.223 314.741 431.223C315.025 426.647 316.273 422.183 318.404 418.125C321.87 410.905 326.272 409.398 326.272 409.398L305.381 401.861C305.381 401.861 301.734 336.311 296.036 304.569C289.48 268.123 272.96 235.688 272.96 235.688Z" fill="#434956"/>
<path d="M348.411 391.431C348.307 391.425 348.204 391.4 348.11 391.355C347.928 391.273 347.786 391.122 347.716 390.936C347.645 390.749 347.651 390.542 347.733 390.36C351.998 380.744 356.415 361.843 358.902 348.595L359.113 347.524C359.866 343.621 360.801 338.767 358.932 335.467C357.982 333.763 355.827 330.056 353.747 326.423C351.667 322.791 349.572 319.233 348.999 318.178C347.899 316.144 351.365 310.718 356.369 303.257C357.726 301.237 358.886 299.489 359.565 298.313C361.358 295.298 360.168 292.405 358.796 289.134L358.329 288.003C357.078 284.989 355.661 281.869 354.289 278.96L352.692 275.297L350.476 270.384C346.129 260.173 341.192 250.223 335.69 240.585C335.636 240.502 335.6 240.409 335.584 240.311C335.568 240.213 335.572 240.113 335.596 240.017C335.62 239.921 335.663 239.831 335.724 239.753C335.784 239.674 335.86 239.609 335.946 239.56C336.119 239.46 336.324 239.43 336.518 239.478C336.712 239.525 336.88 239.647 336.986 239.817C342.489 249.498 347.43 259.488 351.787 269.736L353.988 274.649L355.661 278.282C357.033 281.296 358.464 284.311 359.715 287.431L360.183 288.546C361.584 291.877 363.031 295.329 360.876 299.097C360.168 300.318 358.992 302.111 357.62 304.116C355.013 308.005 349.572 316.174 350.325 317.5C350.883 318.525 352.903 322.022 355.058 325.685C357.213 329.347 359.293 332.98 360.243 334.728C362.383 338.556 361.389 343.771 360.59 347.856L360.379 348.911C359.474 353.734 354.681 378.453 349.104 391.024C349.041 391.151 348.941 391.257 348.818 391.33C348.695 391.402 348.554 391.437 348.411 391.431Z" fill="#8593B6"/>
<path d="M303.979 394.071C303.881 394.075 303.784 394.058 303.693 394.022C303.602 393.986 303.52 393.931 303.452 393.86C299.91 390.288 282.817 360.701 281.536 355.124C280.843 352.109 282.591 344.362 284.279 336.886C285.591 331.098 286.947 325.115 286.57 323.487C285.983 321.06 281.627 317.458 277.391 314.051C272.282 309.876 267.006 305.566 265.981 301.677C264.821 297.261 265.816 269.618 266.479 251.335C266.72 244.763 266.901 239.563 266.901 237.77C266.901 237.57 266.98 237.378 267.122 237.237C267.263 237.096 267.455 237.016 267.655 237.016C267.853 237.02 268.043 237.101 268.183 237.241C268.324 237.382 268.404 237.571 268.408 237.77C268.408 239.654 268.212 244.854 267.986 251.456C267.368 268.548 266.343 297.155 267.444 301.36C268.348 304.767 273.653 309.108 278.341 312.936C283.028 316.764 287.384 320.276 288.033 323.2C288.5 325.16 287.234 330.737 285.757 337.278C284.174 344.242 282.395 352.14 283.013 354.853C284.264 360.309 301.1 389.353 304.522 392.85C304.592 392.92 304.648 393.004 304.687 393.096C304.725 393.187 304.745 393.286 304.745 393.385C304.745 393.485 304.725 393.583 304.687 393.675C304.648 393.767 304.592 393.85 304.522 393.92C304.447 393.982 304.36 394.027 304.266 394.053C304.173 394.079 304.075 394.085 303.979 394.071Z" fill="#8593B6"/>
<path d="M242.664 381.137C242.466 381.111 242.287 381.007 242.165 380.849C242.044 380.69 241.99 380.491 242.016 380.293C242.573 376.374 251.225 298.299 251.617 292.315C251.631 292.115 251.723 291.929 251.875 291.797C252.026 291.666 252.223 291.6 252.423 291.614C252.623 291.628 252.809 291.721 252.941 291.872C253.072 292.023 253.138 292.22 253.124 292.42C252.732 298.449 244.08 376.57 243.508 380.504C243.478 380.699 243.373 380.874 243.215 380.993C243.057 381.111 242.859 381.163 242.664 381.137Z" fill="#8593B6"/>
<path d="M304.763 402.372C304.669 402.393 304.571 402.393 304.477 402.372C302.563 401.603 294.092 398.739 283.375 395.122C261.731 387.827 232.129 377.834 226.447 374.895C226.332 374.859 226.229 374.796 226.144 374.712C226.06 374.627 225.997 374.524 225.961 374.409C225.926 374.295 225.918 374.174 225.94 374.057C225.961 373.939 226.011 373.828 226.085 373.734C226.131 373.646 226.194 373.567 226.271 373.503C226.347 373.439 226.436 373.391 226.531 373.362C226.627 373.332 226.727 373.322 226.826 373.332C226.925 373.341 227.022 373.37 227.11 373.418C232.641 376.281 263.434 386.666 283.812 393.539C294.559 397.172 303.045 400.036 305.004 400.819C305.188 400.896 305.333 401.042 305.409 401.225C305.486 401.409 305.486 401.615 305.411 401.799C305.377 401.951 305.296 402.087 305.18 402.19C305.063 402.293 304.918 402.357 304.763 402.372Z" fill="#8593B6"/>
<path d="M294.347 433.425C275.31 433.425 238.383 429.988 210.333 420.071C210.161 419.993 210.025 419.854 209.95 419.681C209.876 419.507 209.87 419.312 209.932 419.134C209.995 418.956 210.122 418.808 210.288 418.719C210.454 418.631 210.648 418.607 210.83 418.654C246.266 431.194 295.839 433.335 305.063 431.255C305.162 431.233 305.265 431.231 305.364 431.248C305.464 431.266 305.559 431.303 305.645 431.358C305.73 431.413 305.804 431.484 305.862 431.567C305.92 431.65 305.961 431.743 305.983 431.842C306.005 431.941 306.007 432.044 305.989 432.143C305.971 432.243 305.934 432.338 305.879 432.424C305.825 432.509 305.754 432.583 305.671 432.641C305.588 432.699 305.494 432.74 305.395 432.762C301.741 433.322 298.042 433.544 294.347 433.425Z" fill="#8593B6"/>
<path d="M76.353 246.204C82.2614 251.404 89.7524 254.735 94.9374 260.749C96.9872 263.116 98.826 265.633 100.71 268.105C102.097 269.913 105.774 272.913 106.377 275.189C106.634 276.184 106.588 274.827 106.377 273.832V273.697C105.865 269.175 105.488 264.487 105.322 259.875C105.156 255.263 105.458 250.621 105.172 246.024C104.765 239.527 102.73 233.242 97.4243 229.173C94.8318 227.183 91.5008 225.977 89.1043 223.762C86.7078 221.546 87.7478 219.24 89.1043 216.934C90.5434 214.841 91.6375 212.53 92.3449 210.091C92.6428 207.2 91.8999 204.298 90.2498 201.906C87.16 196.722 80.302 190.949 73.8208 191.717C68.4098 192.366 67.7919 198.606 67.8823 202.962C67.9727 207.317 68.3646 211.402 68.4098 215.622C68.455 219.843 67.7165 224.229 67.6562 228.555C67.5507 235.835 70.942 241.442 76.353 246.204Z" fill="#28B781"/>
<path d="M131.293 313.701C132.903 309.807 134.866 306.069 137.156 302.532C140.337 297.634 143.863 292.856 146.004 287.369C148.144 281.883 147.873 275.779 148.084 269.885C148.25 265.544 149.591 261.219 149.184 256.878C149.018 254.798 147.828 251.422 145.13 251.768C143.019 252.04 141.783 254.632 140.97 256.29C139.648 259.233 138.506 262.253 137.548 265.333C137.141 266.524 136.749 267.745 136.237 268.891C135.935 269.554 134.971 271.182 134.081 270.955C132.574 270.579 133.931 264.324 134.157 263.223C135.302 257.646 137.036 252.477 137.277 246.749C137.623 238.459 136.975 228.572 128.851 224.035C126.726 222.844 124.043 222.136 122.023 223.914C120.004 225.693 119.476 228.692 119.175 231.194C118.27 238.866 120.079 246.116 122.536 253.336C124.556 259.289 127.058 265.394 127.148 271.815C127.329 277.934 124.134 283.375 122.626 289.163C121.09 294.734 120.443 300.513 120.712 306.285C120.712 310.023 120.833 313.731 121.104 317.469C121.36 320.891 121.662 324.327 122.084 327.748C122.084 328.442 122.25 329.165 122.34 329.874C121.014 326.708 120.561 323.061 119.461 319.881C117.517 314.198 115.271 308.652 113.432 302.954C112.012 298.205 110.336 293.536 108.413 288.967C106.499 284.717 104.208 280.225 100.651 277.105C98.5755 275.181 95.854 274.105 93.0241 274.091C91.235 274.235 89.472 274.61 87.7789 275.206C86.8323 275.534 85.8176 275.615 84.831 275.441C83.8444 275.267 82.9187 274.844 82.1418 274.211C76.3087 269.689 74.6055 261.716 70.2345 256.049C67.0241 251.829 59.3974 244.624 53.7905 249.236C50.776 251.678 50.0073 256.395 50.158 260.013C50.5676 264.497 52.1248 268.8 54.6797 272.508C57.1968 276.547 60.4525 280.165 62.7586 284.325C63.9883 286.633 64.4628 289.269 64.1151 291.861C63.7238 294.412 63.8831 297.018 64.5823 299.503C67.2502 307.039 75.5702 305.999 82.0513 306.195C86.7031 306.287 91.3174 307.048 95.7522 308.456C98.0844 309.176 100.209 310.446 101.948 312.159C103.687 313.872 104.99 315.977 105.745 318.298C107.026 321.855 107.72 325.834 110.146 328.849C111.3 330.248 112.774 331.349 114.442 332.059C116.974 333.175 124.676 333.657 124.737 332.948C125.157 330.529 125.829 328.16 126.741 325.88C128.113 321.84 129.62 317.74 131.293 313.701Z" fill="#28B781"/>
<path d="M167.06 312.267C166.397 307.957 166.517 303.224 164.482 299.23C164.401 299.099 164.273 299.005 164.125 298.966C163.976 298.927 163.819 298.945 163.684 299.019C162.176 299.833 162.176 302.199 162.041 303.661C161.83 306.057 162.041 308.469 161.694 310.866C161.183 315.149 160.171 319.358 158.679 323.406C157.924 325.471 156.675 327.32 155.041 328.791C153.407 330.262 151.437 331.311 149.304 331.846C146.362 332.52 143.574 333.748 141.09 335.464C138.978 337.25 137.328 339.52 136.282 342.081C133.267 348.863 131.76 356.46 130.404 363.71C129.454 368.608 128.685 373.507 127.495 378.345C126.194 383.15 125.148 388.02 124.359 392.935C124.239 393.176 124.118 393.433 124.013 393.674C123.711 394.412 124.857 394.819 125.264 394.201C129.936 386.997 135.649 380.53 143.351 376.551C146.863 374.758 151.535 374.396 154.474 371.577C156.705 369.422 157.006 366.151 156.675 363.242C156.238 359.414 154.399 356.264 152.485 352.993C151.445 351.199 150.194 349.285 150.616 347.1C150.907 346.113 151.395 345.196 152.05 344.403C152.705 343.61 153.515 342.959 154.429 342.488C157.655 340.483 161.453 339.579 164.09 336.67C166.517 334.016 167.964 330.612 168.19 327.023C168.361 322.078 167.982 317.129 167.06 312.267Z" fill="#28B781"/>
<path d="M103.213 337.167C99.0708 331.851 94.0922 327.244 88.4719 323.527C85.4574 321.537 78.4185 317.603 76.9866 323.527C76.1577 326.963 79.5188 330.339 81.7345 332.57C85.0655 335.811 88.909 338.599 91.7124 342.337C88.2458 343.452 84.6133 343.663 81.5837 346.06C78.0116 348.909 76.3988 354.41 79.9559 357.892C81.7892 359.483 83.8719 360.761 86.1205 361.675C88.924 363.031 91.7727 364.267 94.6365 365.458C100.831 368.051 107.101 370.673 112.377 374.909C117.652 379.144 122.822 386.514 123.244 393.568C123.244 394.231 123.033 393.568 123.44 393.312C123.651 393.508 124.39 393.161 124.39 392.769C124.409 382.45 122.279 372.24 118.134 362.79C114.193 353.689 109.184 345.087 103.213 337.167Z" fill="#28B781"/>
<path d="M88.9235 239.862C91.2145 244.595 93.5959 249.222 96.1281 253.835C98.6575 258.203 100.893 262.735 102.82 267.4C105.066 273.233 107.342 278.976 109.784 284.763C112.28 290.764 114.429 296.904 116.22 303.152C119.759 315.389 122.225 327.911 123.59 340.577C124.248 346.995 124.5 353.449 124.344 359.9C124.208 364.949 123.635 369.938 123.168 374.972C122.561 380.194 122.42 385.46 122.746 390.708C123.123 395.094 123.816 400.294 127.268 403.414C127.404 403.54 127.581 403.613 127.767 403.621C127.952 403.629 128.135 403.571 128.281 403.457C128.428 403.343 128.529 403.181 128.567 402.999C128.605 402.817 128.577 402.627 128.489 402.464C124.449 394.189 124.675 385.176 125.474 376.193C125.896 371.234 126.484 366.305 126.65 361.331C126.846 354.999 126.635 348.66 126.017 342.355C124.731 329.958 122.407 317.692 119.068 305.684C117.407 299.544 115.394 293.505 113.039 287.597C110.688 281.643 107.975 275.871 105.699 269.902C101.584 259.095 95.3142 249.509 89.7525 239.456C89.4661 238.928 88.7125 239.456 88.9536 239.908L88.9235 239.862Z" fill="#2B2C2F"/>
<path d="M123.696 328.199C124.344 320.331 125.038 312.75 127.69 305.244C128.926 301.747 130.433 298.34 131.624 294.828C132.604 291.935 134.081 287.94 133.327 284.866C133.311 284.788 133.268 284.718 133.206 284.668C133.145 284.618 133.068 284.591 132.988 284.591C132.909 284.591 132.832 284.618 132.77 284.668C132.708 284.718 132.666 284.788 132.649 284.866C132.137 286.629 132.197 288.558 131.835 290.367C131.461 292.123 130.999 293.858 130.449 295.567C129.288 299.2 127.766 302.681 126.454 306.253C123.815 313.253 122.69 320.733 123.153 328.199C123.153 328.271 123.182 328.34 123.233 328.391C123.284 328.442 123.353 328.47 123.425 328.47C123.497 328.47 123.566 328.442 123.617 328.391C123.667 328.34 123.696 328.271 123.696 328.199Z" fill="#2B2C2F"/>
<path d="M78.1019 282.985C81.237 290.521 90.612 290.973 97.4549 292.661C99.7891 293.302 101.971 294.404 103.871 295.903C105.772 297.402 107.352 299.267 108.518 301.388C111.248 306.18 113.37 311.294 114.833 316.611C114.833 316.611 114.939 316.611 114.924 316.611C113.01 307.568 110.282 296.67 100.952 292.495C93.4909 289.134 83.6485 290.822 78.8706 282.759C78.6294 282.352 77.9059 282.623 78.0868 283.075L78.1019 282.985Z" fill="#2B2C2F"/>
<path d="M118.752 327.012C119.129 327.509 119.476 328.037 119.852 328.519C120.034 328.766 120.241 328.993 120.47 329.197C120.705 329.436 121.013 329.59 121.345 329.634C121.378 329.633 121.41 329.623 121.438 329.606C121.466 329.589 121.49 329.565 121.506 329.537C121.523 329.508 121.532 329.476 121.533 329.443C121.533 329.41 121.526 329.377 121.51 329.348C121.32 329.125 121.103 328.928 120.862 328.76L120.184 328.157C119.747 327.75 119.355 327.298 118.918 326.876C118.843 326.876 118.677 326.876 118.752 327.012Z" fill="#43588E"/>
<path d="M99.2341 350.931C104.687 355.379 109.5 360.557 113.538 366.32C115.426 369.077 117.162 371.935 118.738 374.881C120.33 378.11 121.739 381.426 122.958 384.814C123.064 385.07 123.516 385.085 123.486 384.814C122.732 377.715 118.24 371.625 114.653 365.732C112.743 362.784 110.497 360.068 107.961 357.638C105.441 354.969 102.681 352.537 99.7164 350.373C99.3547 350.102 98.8874 350.705 99.2341 350.991V350.931Z" fill="#2B2C2F"/>
<path d="M142.115 342.581C139.523 344.088 139.447 348.158 139.387 350.765C139.297 355.799 140.533 360.517 138.332 365.31C136.343 369.636 133.162 373.238 130.66 377.262C128.309 381.031 126.003 385.839 126.048 390.36C126.048 390.617 126.455 390.767 126.576 390.496C127.367 388.359 128.022 386.175 128.535 383.955C129.287 381.569 130.362 379.297 131.73 377.202C134.142 373.479 137.096 370.073 139.056 366.064C141.105 361.828 140.804 357.638 140.668 353.056C140.668 350.132 140.291 345.445 142.643 343.274C142.724 343.201 142.775 343.099 142.785 342.99C142.796 342.881 142.765 342.772 142.698 342.685C142.632 342.597 142.535 342.538 142.427 342.519C142.319 342.5 142.208 342.522 142.115 342.581Z" fill="#2B2C2F"/>
<path d="M124.781 390.827C114.321 390.676 94.4253 390.57 94.4253 390.57L99.354 427.136C99.8769 431.124 101.832 434.786 104.854 437.44C107.877 440.093 111.761 441.558 115.783 441.56H133.764C137.78 441.564 141.66 440.109 144.685 437.467C147.709 434.826 149.672 431.176 150.208 427.196L155.122 390.631C155.122 390.631 135.226 390.676 124.781 390.827Z" fill="white"/>
<path d="M629.859 323.619L570.247 441.712L396.447 442.963L450.075 321.961L629.859 323.619Z" fill="#F6F7FA"/>
<path d="M281.099 442.224V432.773H393.599L445.373 319.263H625.339L629.86 323.619H454.085L400.292 442.118C400.292 442.118 281.099 441.907 281.099 442.224Z" fill="#D9DEE8"/>
<path d="M539.592 388.807C537.632 394.685 526.976 399.237 515.792 398.966C504.609 398.695 497.133 393.676 499.092 387.782C501.052 381.889 511.723 377.352 522.907 377.623C534.09 377.895 541.566 382.899 539.592 388.807Z" fill="#D9DEE8"/>
<path d="M400.292 442.873C400.188 442.894 400.08 442.894 399.975 442.873C399.794 442.79 399.652 442.64 399.582 442.453C399.511 442.267 399.517 442.06 399.599 441.878L453.679 322.866H629.861C630.06 322.866 630.252 322.945 630.393 323.086C630.535 323.228 630.614 323.419 630.614 323.619C630.614 323.819 630.535 324.011 630.393 324.152C630.252 324.294 630.06 324.373 629.861 324.373H454.568L400.925 442.436C400.871 442.561 400.783 442.668 400.671 442.745C400.559 442.823 400.428 442.867 400.292 442.873Z" fill="white"/>
<path d="M273.262 451.163H66.5127V496.998H273.262V451.163Z" fill="#434956"/>
<path d="M644.074 451.163H272.086V496.998H644.074V451.163Z" fill="#434956"/>
<g style="mix-blend-mode:multiply">
<path d="M273.262 451.163H272.086H66.5127V459.589H272.086H273.262H644.074V451.163H273.262Z" fill="#BDC4D7"/>
</g>
<path d="M282.305 442.12H56.5342V453.349H282.305V442.12Z" fill="#EAF7EE"/>
<path d="M653.116 442.12H281.127V453.349H653.116V442.12Z" fill="#EAF7EE"/>
<path d="M221.065 148.822H148.084C143.564 148.822 139.899 152.486 139.899 157.006V193.437C139.899 197.957 143.564 201.621 148.084 201.621H221.065C225.585 201.621 229.249 197.957 229.249 193.437V157.006C229.249 152.486 225.585 148.822 221.065 148.822Z" fill="white"/>
<path d="M250.048 175.217L222.631 163.656V186.777L250.048 175.217Z" fill="white"/>
<path d="M167.256 180.266C170.045 180.266 172.306 178.005 172.306 175.217C172.306 172.428 170.045 170.167 167.256 170.167C164.468 170.167 162.207 172.428 162.207 175.217C162.207 178.005 164.468 180.266 167.256 180.266Z" fill="#28B781"/>
<path d="M184.574 180.266C187.362 180.266 189.623 178.005 189.623 175.217C189.623 172.428 187.362 170.167 184.574 170.167C181.785 170.167 179.524 172.428 179.524 175.217C179.524 178.005 181.785 180.266 184.574 180.266Z" fill="#28B781"/>
<path d="M201.893 180.266C204.682 180.266 206.942 178.005 206.942 175.217C206.942 172.428 204.682 170.167 201.893 170.167C199.104 170.167 196.844 172.428 196.844 175.217C196.844 178.005 199.104 180.266 201.893 180.266Z" fill="#28B781"/>
<path d="M592.646 36.7305H424.151C418.955 36.7305 413.971 38.7949 410.296 42.4695C406.622 46.1441 404.557 51.128 404.557 56.3247V136.209C404.557 141.405 406.622 146.389 410.296 150.064C413.971 153.739 418.955 155.803 424.151 155.803H439.224C439.646 163.053 438.606 173.89 432.562 187.621C447.575 180.799 460.268 169.74 469.082 155.803H592.676C597.873 155.803 602.857 153.739 606.532 150.064C610.206 146.389 612.271 141.405 612.271 136.209V56.3247C612.271 53.749 611.763 51.1986 610.776 48.8193C609.79 46.4401 608.344 44.2787 606.521 42.4588C604.698 40.6389 602.535 39.1963 600.154 38.2134C597.773 37.2304 595.222 36.7265 592.646 36.7305Z" fill="#28B781"/>
<path d="M520.766 74.8186H437.189C436.089 74.8186 435.033 74.3824 434.253 73.6055C433.473 72.8286 433.033 71.7744 433.029 70.6737C433.029 69.5704 433.468 68.5123 434.248 67.7321C435.028 66.952 436.086 66.5137 437.189 66.5137H520.766C521.869 66.5137 522.927 66.952 523.708 67.7321C524.488 68.5123 524.926 69.5704 524.926 70.6737C524.922 71.7744 524.482 72.8286 523.702 73.6055C522.923 74.3824 521.867 74.8186 520.766 74.8186Z" fill="white"/>
<path d="M580.693 99.0392H435.591C434.915 99.0392 434.267 98.7709 433.79 98.2932C433.312 97.8155 433.043 97.1676 433.043 96.492C433.043 95.8164 433.312 95.1685 433.79 94.6908C434.267 94.2131 434.915 93.9447 435.591 93.9447H580.708C581.047 93.9387 581.383 94.0002 581.697 94.1255C582.011 94.2508 582.297 94.4375 582.539 94.6746C582.78 94.9118 582.972 95.1946 583.103 95.5066C583.234 95.8187 583.301 96.1536 583.301 96.492C583.301 96.8316 583.233 97.1679 583.101 97.4809C582.97 97.7939 582.777 98.0775 582.534 98.3148C582.291 98.5522 582.003 98.7385 581.687 98.8629C581.37 98.9873 581.033 99.0473 580.693 99.0392Z" fill="#D2E6FF"/>
<path d="M580.693 113.178H435.591C434.915 113.178 434.267 112.91 433.79 112.432C433.312 111.954 433.043 111.306 433.043 110.631C433.043 109.955 433.312 109.307 433.79 108.83C434.267 108.352 434.915 108.084 435.591 108.084H580.708C581.047 108.078 581.383 108.139 581.697 108.264C582.011 108.39 582.297 108.576 582.539 108.814C582.78 109.051 582.972 109.334 583.103 109.646C583.234 109.958 583.301 110.293 583.301 110.631C583.301 110.971 583.233 111.307 583.101 111.62C582.97 111.933 582.777 112.216 582.534 112.454C582.291 112.691 582.003 112.877 581.687 113.002C581.37 113.126 581.033 113.186 580.693 113.178Z" fill="#D2E6FF"/>
<path d="M549.041 128.251H435.591C434.915 128.251 434.267 127.982 433.79 127.505C433.312 127.027 433.043 126.379 433.043 125.703C433.043 125.028 433.312 124.38 433.79 123.902C434.267 123.425 434.915 123.156 435.591 123.156H549.056C549.394 123.15 549.731 123.212 550.045 123.337C550.359 123.462 550.645 123.649 550.887 123.886C551.128 124.123 551.32 124.406 551.451 124.718C551.581 125.03 551.649 125.365 551.649 125.703C551.649 126.043 551.581 126.379 551.449 126.692C551.317 127.005 551.124 127.289 550.881 127.526C550.638 127.764 550.35 127.95 550.034 128.074C549.718 128.199 549.381 128.259 549.041 128.251Z" fill="#D2E6FF"/>
<path d="M579.549 74.8186H539.682C538.581 74.8186 537.525 74.3824 536.746 73.6055C535.966 72.8286 535.526 71.7744 535.522 70.6737C535.522 69.5704 535.96 68.5123 536.74 67.7321C537.521 66.952 538.579 66.5137 539.682 66.5137H579.549C580.096 66.5117 580.637 66.618 581.143 66.8263C581.649 67.0347 582.108 67.341 582.495 67.7277C582.881 68.1144 583.188 68.5738 583.396 69.0794C583.604 69.585 583.711 70.1268 583.709 70.6737C583.709 71.2193 583.601 71.7595 583.392 72.2634C583.182 72.7673 582.876 73.2249 582.489 73.6099C582.103 73.995 581.644 74.3 581.139 74.5074C580.635 74.7149 580.094 74.8206 579.549 74.8186Z" fill="white"/>
<path d="M479.061 221.699H433.798C432.133 221.699 430.784 223.048 430.784 224.713V255.642C430.784 257.307 432.133 258.656 433.798 258.656H479.061C480.726 258.656 482.075 257.307 482.075 255.642V224.713C482.075 223.048 480.726 221.699 479.061 221.699Z" fill="white"/>
<path d="M456.693 245.712C456.427 245.71 456.17 245.614 455.969 245.44L431.326 225.093C431.212 224.994 431.119 224.873 431.051 224.738C430.984 224.603 430.944 224.456 430.933 224.306C430.923 224.155 430.942 224.004 430.99 223.861C431.038 223.718 431.114 223.586 431.213 223.472C431.311 223.358 431.432 223.265 431.567 223.198C431.702 223.131 431.849 223.091 431.999 223.08C432.15 223.07 432.301 223.089 432.444 223.137C432.587 223.185 432.719 223.26 432.833 223.359L456.693 243.089L479.979 222.832C480.205 222.632 480.501 222.53 480.802 222.548C481.103 222.567 481.385 222.704 481.585 222.93C481.785 223.156 481.886 223.452 481.868 223.753C481.85 224.054 481.713 224.335 481.487 224.535L457.476 245.425C457.26 245.615 456.98 245.717 456.693 245.712Z" fill="#6F7FA9"/>
<path d="M432.109 257.811C431.887 257.811 431.67 257.745 431.486 257.623C431.301 257.501 431.156 257.327 431.069 257.123C430.982 256.919 430.958 256.694 430.998 256.476C431.038 256.258 431.141 256.056 431.295 255.897L448.523 237.81C448.627 237.703 448.751 237.618 448.888 237.56C449.025 237.502 449.173 237.473 449.321 237.473C449.47 237.473 449.618 237.502 449.755 237.56C449.892 237.618 450.016 237.703 450.12 237.81C450.332 238.022 450.451 238.309 450.451 238.608C450.451 238.908 450.332 239.195 450.12 239.407L432.892 257.494C432.683 257.699 432.401 257.812 432.109 257.811Z" fill="#6F7FA9"/>
<path d="M480.808 257.149C480.659 257.153 480.511 257.125 480.373 257.068C480.236 257.011 480.112 256.925 480.009 256.818L462.796 239.59C462.596 239.375 462.488 239.092 462.493 238.799C462.498 238.506 462.617 238.227 462.824 238.02C463.031 237.813 463.31 237.694 463.603 237.689C463.896 237.684 464.179 237.792 464.394 237.992L481.561 255.205C481.773 255.417 481.892 255.704 481.892 256.004C481.892 256.303 481.773 256.591 481.561 256.803C481.364 257.011 481.094 257.135 480.808 257.149Z" fill="#6F7FA9"/>
<path d="M484.441 235.671C492.791 235.671 499.559 228.902 499.559 220.553C499.559 212.204 492.791 205.435 484.441 205.435C476.092 205.435 469.324 212.204 469.324 220.553C469.324 228.902 476.092 235.671 484.441 235.671Z" fill="#FF5F42"/>
<path d="M480.781 220.435L480.745 220.019C481.203 220.224 481.601 220.489 481.939 220.814C482.277 221.14 482.536 221.496 482.717 221.882C482.898 222.267 482.988 222.665 482.988 223.075C482.988 223.763 482.795 224.396 482.409 224.974C482.035 225.541 481.529 225.999 480.89 226.349C480.251 226.687 479.539 226.855 478.756 226.855C477.972 226.855 477.26 226.687 476.621 226.349C475.982 225.999 475.47 225.541 475.084 224.974C474.71 224.396 474.523 223.763 474.523 223.075C474.523 222.521 474.638 222.044 474.867 221.646C475.108 221.236 475.404 220.893 475.753 220.615C476.115 220.338 476.471 220.109 476.82 219.928L476.676 220.435C476.374 220.314 476.079 220.145 475.789 219.928C475.512 219.699 475.283 219.41 475.102 219.06C474.921 218.71 474.831 218.3 474.831 217.83C474.831 217.155 475.006 216.546 475.355 216.003C475.705 215.449 476.175 215.009 476.766 214.683C477.369 214.357 478.032 214.195 478.756 214.195C479.491 214.195 480.148 214.357 480.727 214.683C481.318 215.009 481.788 215.449 482.138 216.003C482.488 216.546 482.662 217.155 482.662 217.83C482.662 218.349 482.56 218.783 482.355 219.132C482.15 219.482 481.903 219.759 481.613 219.964C481.324 220.169 481.047 220.326 480.781 220.435ZM477.001 217.866C477.001 218.192 477.074 218.481 477.218 218.734C477.375 218.988 477.586 219.193 477.851 219.349C478.117 219.494 478.418 219.566 478.756 219.566C479.093 219.566 479.389 219.494 479.642 219.349C479.907 219.193 480.112 218.988 480.257 218.734C480.414 218.481 480.492 218.192 480.492 217.866C480.492 217.384 480.323 216.986 479.986 216.673C479.66 216.347 479.25 216.184 478.756 216.184C478.249 216.184 477.827 216.347 477.49 216.673C477.164 216.986 477.001 217.384 477.001 217.866ZM478.756 224.866C479.334 224.866 479.823 224.691 480.221 224.341C480.619 223.98 480.818 223.546 480.818 223.039C480.818 222.689 480.727 222.376 480.546 222.099C480.365 221.821 480.118 221.604 479.805 221.447C479.491 221.279 479.141 221.194 478.756 221.194C478.37 221.194 478.02 221.279 477.707 221.447C477.393 221.604 477.146 221.821 476.965 222.099C476.784 222.376 476.694 222.689 476.694 223.039C476.694 223.546 476.893 223.98 477.291 224.341C477.688 224.691 478.177 224.866 478.756 224.866ZM488.068 227.036C487.622 227.036 487.145 226.97 486.639 226.837C486.132 226.693 485.716 226.488 485.391 226.222C485.234 226.09 485.107 225.921 485.011 225.716C484.927 225.499 484.884 225.294 484.884 225.101C484.884 224.896 484.969 224.703 485.138 224.522C485.319 224.341 485.572 224.251 485.897 224.251C486.114 224.251 486.386 224.365 486.711 224.595C486.904 224.715 487.115 224.824 487.344 224.92C487.573 225.017 487.808 225.065 488.05 225.065C488.628 225.065 489.129 224.962 489.551 224.757C489.973 224.54 490.298 224.245 490.528 223.871C490.757 223.497 490.871 223.057 490.871 222.551C490.871 222.093 490.763 221.701 490.546 221.375C490.341 221.05 490.063 220.796 489.714 220.615C489.376 220.435 489.008 220.344 488.61 220.344C488.237 220.344 487.911 220.404 487.634 220.525C487.356 220.646 487.103 220.772 486.874 220.905C486.645 221.025 486.416 221.086 486.187 221.086C485.789 221.086 485.493 221.001 485.3 220.833C485.107 220.652 484.987 220.441 484.939 220.199C484.89 219.958 484.878 219.741 484.903 219.548L485.463 215.153C485.511 214.9 485.632 214.695 485.825 214.538C486.03 214.369 486.271 214.285 486.548 214.285H491.776C492.065 214.285 492.306 214.382 492.499 214.574C492.692 214.767 492.788 215.009 492.788 215.298C492.788 215.575 492.692 215.81 492.499 216.003C492.306 216.184 492.065 216.275 491.776 216.275H487.109L487.308 216.112L486.82 219.783L486.585 219.096C486.657 218.976 486.814 218.861 487.055 218.753C487.296 218.644 487.573 218.554 487.887 218.481C488.2 218.397 488.508 218.355 488.809 218.355C489.617 218.355 490.341 218.542 490.98 218.915C491.619 219.277 492.119 219.777 492.481 220.417C492.855 221.044 493.042 221.755 493.042 222.551C493.042 223.455 492.837 224.245 492.427 224.92C492.017 225.595 491.438 226.12 490.69 226.494C489.955 226.855 489.081 227.036 488.068 227.036Z" fill="white"/>
<path d="M636.341 189.112H547.986C544.656 189.112 541.957 191.812 541.957 195.141V208.963C541.957 212.292 544.656 214.992 547.986 214.992H636.341C639.67 214.992 642.37 212.292 642.37 208.963V195.141C642.37 191.812 639.67 189.112 636.341 189.112Z" fill="#28B781"/>
<path d="M554.362 208.841C554.183 208.844 554.004 208.808 553.84 208.736C553.676 208.663 553.53 208.554 553.413 208.418C553.174 208.115 553.061 207.732 553.096 207.348L553.473 204.002C553.473 203.912 553.473 203.867 553.473 203.836C553.473 203.806 553.352 203.836 553.262 203.836L550.504 205.826C550.359 205.947 550.189 206.034 550.007 206.081C549.824 206.128 549.634 206.133 549.449 206.097C549.261 206.059 549.083 205.98 548.929 205.866C548.776 205.751 548.649 205.604 548.559 205.434C548.436 205.267 548.358 205.072 548.332 204.866C548.305 204.66 548.332 204.451 548.409 204.258C548.48 204.089 548.586 203.936 548.722 203.811C548.857 203.686 549.017 203.592 549.192 203.535L552.282 202.133C552.373 202.133 552.418 202.088 552.418 201.998C552.418 201.998 552.418 201.907 552.282 201.877L549.192 200.475C549.013 200.407 548.851 200.3 548.718 200.162C548.585 200.024 548.485 199.858 548.424 199.676C548.371 199.493 548.356 199.302 548.379 199.112C548.403 198.923 548.464 198.741 548.559 198.576C548.649 198.407 548.776 198.259 548.929 198.145C549.083 198.03 549.261 197.951 549.449 197.913C549.631 197.876 549.818 197.876 550 197.915C550.181 197.954 550.353 198.03 550.504 198.139L553.262 200.174C553.352 200.174 553.413 200.249 553.473 200.174C553.533 200.098 553.548 200.174 553.473 200.008L553.096 196.662C553.074 196.47 553.092 196.276 553.149 196.092C553.206 195.908 553.301 195.737 553.428 195.592C553.559 195.452 553.718 195.343 553.895 195.27C554.071 195.197 554.262 195.163 554.453 195.17C554.641 195.166 554.828 195.205 555 195.283C555.172 195.361 555.324 195.477 555.445 195.621C555.567 195.766 555.654 195.936 555.701 196.118C555.749 196.301 555.755 196.492 555.719 196.677L555.342 200.023C555.342 200.114 555.342 200.159 555.342 200.189C555.342 200.219 555.462 200.189 555.553 200.189L558.311 198.199C558.458 198.077 558.63 197.989 558.816 197.943C559.001 197.896 559.194 197.891 559.381 197.928C559.57 197.96 559.747 198.038 559.899 198.153C560.052 198.268 560.174 198.419 560.256 198.591C560.375 198.76 560.451 198.955 560.477 199.16C560.503 199.365 560.479 199.573 560.406 199.767C560.333 199.935 560.225 200.086 560.09 200.211C559.955 200.335 559.796 200.431 559.623 200.49L556.518 201.892C556.442 201.892 556.397 201.967 556.397 202.013C556.397 202.058 556.397 202.118 556.518 202.148L559.623 203.55C559.802 203.62 559.965 203.727 560.101 203.865C560.236 204.003 560.34 204.168 560.406 204.349C560.468 204.532 560.486 204.726 560.46 204.917C560.434 205.108 560.364 205.29 560.256 205.449C560.174 205.622 560.052 205.772 559.899 205.887C559.747 206.003 559.57 206.08 559.381 206.112C559.197 206.15 559.007 206.15 558.823 206.111C558.639 206.072 558.465 205.995 558.311 205.886L555.553 203.852C555.462 203.852 555.387 203.776 555.342 203.852C555.297 203.927 555.267 203.927 555.342 204.017L555.719 207.363C555.754 207.554 555.743 207.75 555.688 207.936C555.633 208.122 555.535 208.292 555.402 208.434C555.265 208.568 555.103 208.674 554.924 208.744C554.745 208.814 554.554 208.847 554.362 208.841Z" fill="white"/>
<path d="M572.629 208.844C572.449 208.848 572.271 208.812 572.107 208.739C571.943 208.666 571.797 208.558 571.679 208.422C571.441 208.119 571.327 207.736 571.363 207.352L571.739 204.006C571.739 203.916 571.739 203.87 571.739 203.84C571.705 203.82 571.666 203.81 571.626 203.81C571.587 203.81 571.548 203.82 571.513 203.84L568.77 205.83C568.623 205.951 568.45 206.038 568.265 206.085C568.08 206.132 567.887 206.138 567.7 206.101C567.513 206.061 567.336 205.982 567.183 205.867C567.029 205.753 566.902 205.606 566.811 205.438C566.692 205.269 566.616 205.074 566.589 204.869C566.563 204.664 566.587 204.456 566.66 204.262C566.734 204.094 566.841 203.943 566.976 203.818C567.111 203.694 567.27 203.599 567.444 203.539L570.549 202.137C570.624 202.137 570.669 202.062 570.669 202.001C570.669 201.941 570.669 201.911 570.549 201.881L567.444 200.479C567.265 200.413 567.104 200.307 566.973 200.168C566.843 200.029 566.746 199.863 566.69 199.68C566.632 199.499 566.612 199.307 566.633 199.117C566.654 198.928 566.714 198.745 566.811 198.58C566.902 198.412 567.029 198.265 567.183 198.151C567.336 198.037 567.513 197.957 567.7 197.917C567.884 197.88 568.074 197.881 568.258 197.92C568.442 197.959 568.616 198.035 568.77 198.143L571.513 200.178C571.548 200.198 571.587 200.208 571.626 200.208C571.666 200.208 571.705 200.198 571.739 200.178C571.739 200.178 571.739 200.178 571.739 200.012L571.363 196.666C571.343 196.473 571.364 196.279 571.424 196.094C571.484 195.91 571.581 195.74 571.709 195.596C571.839 195.463 571.993 195.357 572.164 195.285C572.335 195.212 572.519 195.175 572.704 195.175C572.89 195.175 573.073 195.212 573.244 195.285C573.415 195.357 573.57 195.463 573.699 195.596C573.825 195.741 573.916 195.912 573.965 196.098C574.015 196.283 574.022 196.477 573.985 196.666L573.609 200.012C573.609 200.102 573.609 200.148 573.609 200.178C573.609 200.208 573.729 200.178 573.819 200.178L576.578 198.188C576.727 198.065 576.902 197.976 577.09 197.929C577.277 197.882 577.473 197.878 577.663 197.917C577.85 197.953 578.026 198.031 578.178 198.146C578.329 198.261 578.452 198.41 578.537 198.58C578.655 198.75 578.729 198.946 578.753 199.151C578.776 199.356 578.749 199.564 578.673 199.756C578.602 199.926 578.495 200.078 578.36 200.203C578.225 200.328 578.064 200.422 577.889 200.479L574.799 201.881C574.709 201.881 574.664 201.956 574.664 202.001C574.664 202.047 574.664 202.107 574.799 202.137L577.889 203.539C578.072 203.604 578.237 203.71 578.373 203.848C578.509 203.987 578.611 204.154 578.673 204.338C578.74 204.519 578.763 204.713 578.739 204.904C578.715 205.096 578.646 205.279 578.537 205.438C578.452 205.608 578.329 205.757 578.178 205.872C578.026 205.987 577.85 206.065 577.663 206.101C577.476 206.14 577.284 206.14 577.097 206.101C576.91 206.062 576.733 205.985 576.578 205.875L573.819 203.84C573.729 203.84 573.669 203.765 573.609 203.84C573.548 203.916 573.533 203.916 573.609 204.006L573.985 207.352C574.02 207.543 574.01 207.739 573.955 207.925C573.9 208.111 573.802 208.281 573.669 208.422C573.535 208.562 573.373 208.672 573.194 208.745C573.015 208.817 572.822 208.851 572.629 208.844Z" fill="white"/>
<path d="M590.914 208.841C590.734 208.844 590.556 208.808 590.392 208.736C590.228 208.663 590.082 208.554 589.964 208.418C589.72 208.118 589.602 207.734 589.633 207.348L590.025 204.002C590.025 203.912 590.025 203.867 590.025 203.836C590.025 203.806 589.904 203.836 589.814 203.836L587.055 205.826C586.91 205.946 586.741 206.033 586.558 206.079C586.376 206.126 586.185 206.132 586 206.097C585.812 206.059 585.635 205.98 585.481 205.866C585.327 205.751 585.201 205.604 585.111 205.434C584.988 205.267 584.91 205.072 584.883 204.866C584.857 204.66 584.884 204.451 584.96 204.258C585.031 204.089 585.138 203.936 585.273 203.811C585.409 203.686 585.569 203.592 585.744 203.535L588.834 202.133C588.924 202.133 588.97 202.088 588.97 201.998C588.97 201.998 588.97 201.907 588.834 201.877L585.744 200.475C585.564 200.409 585.401 200.303 585.268 200.164C585.134 200.026 585.035 199.859 584.975 199.676C584.919 199.494 584.902 199.301 584.926 199.112C584.949 198.922 585.012 198.74 585.111 198.576C585.201 198.407 585.327 198.259 585.481 198.145C585.635 198.03 585.812 197.951 586 197.913C586.182 197.876 586.37 197.878 586.551 197.917C586.733 197.955 586.904 198.031 587.055 198.139L589.814 200.174C589.904 200.174 589.964 200.249 590.025 200.174C590.085 200.098 590.1 200.174 590.025 200.008L589.633 196.662C589.606 196.274 589.73 195.89 589.979 195.592C590.11 195.452 590.27 195.343 590.446 195.27C590.623 195.197 590.813 195.163 591.004 195.17C591.193 195.166 591.38 195.205 591.552 195.283C591.724 195.361 591.876 195.477 591.997 195.621C592.118 195.766 592.206 195.936 592.253 196.118C592.301 196.301 592.306 196.492 592.271 196.677L591.894 200.023C591.894 200.114 591.894 200.159 591.894 200.189C591.928 200.209 591.967 200.219 592.007 200.219C592.046 200.219 592.085 200.209 592.12 200.189L594.878 198.199C595.025 198.077 595.197 197.989 595.382 197.943C595.568 197.896 595.761 197.891 595.948 197.928C596.136 197.96 596.314 198.038 596.466 198.153C596.618 198.268 596.741 198.419 596.822 198.591C596.942 198.76 597.018 198.955 597.044 199.16C597.07 199.365 597.046 199.573 596.973 199.767C596.897 199.934 596.789 200.084 596.654 200.208C596.52 200.332 596.362 200.428 596.189 200.49L593.084 201.892C593.009 201.892 592.964 201.967 592.964 202.013C592.964 202.058 592.964 202.118 593.084 202.148L596.189 203.55C596.369 203.62 596.532 203.727 596.667 203.865C596.803 204.003 596.907 204.168 596.973 204.349C597.034 204.532 597.053 204.726 597.027 204.917C597 205.108 596.931 205.29 596.822 205.449C596.741 205.622 596.618 205.772 596.466 205.887C596.314 206.003 596.136 206.08 595.948 206.112C595.764 206.15 595.574 206.15 595.39 206.111C595.205 206.072 595.031 205.995 594.878 205.886L592.12 203.852C592.085 203.832 592.046 203.821 592.007 203.821C591.967 203.821 591.928 203.832 591.894 203.852C591.894 203.852 591.894 203.927 591.894 204.017L592.271 207.363C592.305 207.554 592.295 207.75 592.24 207.936C592.185 208.122 592.087 208.292 591.954 208.434C591.817 208.568 591.655 208.674 591.476 208.744C591.297 208.814 591.106 208.847 590.914 208.841Z" fill="white"/>
<path d="M609.181 208.84C609.001 208.844 608.823 208.808 608.659 208.735C608.495 208.662 608.349 208.554 608.231 208.418C607.993 208.115 607.879 207.732 607.914 207.348L608.291 204.002C608.291 203.912 608.291 203.866 608.291 203.836C608.291 203.806 608.171 203.836 608.08 203.836L605.322 205.826C605.177 205.947 605.008 206.034 604.825 206.081C604.643 206.128 604.452 206.133 604.267 206.097C604.08 206.057 603.903 205.977 603.75 205.863C603.596 205.748 603.469 205.602 603.378 205.434C603.259 205.265 603.183 205.07 603.156 204.865C603.13 204.66 603.154 204.452 603.227 204.258C603.3 204.09 603.408 203.939 603.543 203.814C603.678 203.69 603.837 203.595 604.011 203.535L607.116 202.133C607.191 202.133 607.236 202.058 607.236 201.997C607.236 201.937 607.236 201.907 607.116 201.877L604.011 200.475C603.832 200.409 603.671 200.303 603.54 200.164C603.41 200.025 603.313 199.858 603.257 199.676C603.199 199.495 603.179 199.303 603.2 199.113C603.221 198.924 603.281 198.741 603.378 198.576C603.469 198.408 603.596 198.261 603.75 198.147C603.903 198.032 604.08 197.953 604.267 197.913C604.449 197.875 604.637 197.876 604.818 197.915C605 197.954 605.171 198.03 605.322 198.139L608.08 200.174C608.171 200.174 608.246 200.249 608.291 200.174C608.337 200.098 608.367 200.174 608.291 200.008L607.914 196.662C607.883 196.276 608.002 195.892 608.246 195.592C608.378 195.453 608.537 195.344 608.714 195.271C608.89 195.198 609.08 195.164 609.271 195.17C609.455 195.167 609.637 195.204 609.806 195.276C609.974 195.349 610.126 195.457 610.251 195.592C610.376 195.737 610.468 195.908 610.517 196.094C610.567 196.279 610.574 196.473 610.537 196.662L610.16 200.008C610.16 200.098 610.16 200.143 610.16 200.174C610.16 200.204 610.281 200.174 610.371 200.174L613.13 198.184C613.279 198.061 613.454 197.972 613.641 197.925C613.829 197.878 614.025 197.874 614.215 197.913C614.4 197.947 614.575 198.025 614.724 198.141C614.874 198.256 614.993 198.405 615.074 198.576C615.197 198.743 615.275 198.939 615.302 199.144C615.328 199.35 615.301 199.559 615.225 199.752C615.154 199.921 615.047 200.074 614.912 200.199C614.776 200.324 614.616 200.418 614.441 200.475L611.351 201.877C611.261 201.877 611.215 201.952 611.215 201.997C611.215 202.043 611.215 202.103 611.351 202.133L614.441 203.535C614.622 203.603 614.786 203.71 614.921 203.847C615.057 203.985 615.16 204.151 615.225 204.334C615.29 204.516 615.31 204.711 615.284 204.902C615.257 205.094 615.185 205.276 615.074 205.434C614.993 205.605 614.874 205.754 614.724 205.869C614.575 205.984 614.4 206.063 614.215 206.097C614.028 206.136 613.835 206.136 613.649 206.097C613.462 206.058 613.285 205.981 613.13 205.871L610.432 203.881C610.341 203.881 610.281 203.806 610.221 203.881C610.16 203.957 610.145 203.957 610.221 204.047L610.597 207.393C610.632 207.584 610.622 207.78 610.567 207.966C610.512 208.152 610.414 208.322 610.281 208.463C610.135 208.601 609.961 208.705 609.771 208.77C609.582 208.835 609.38 208.859 609.181 208.84Z" fill="white"/>
<path d="M627.463 208.841C627.283 208.845 627.104 208.81 626.94 208.737C626.776 208.664 626.63 208.555 626.513 208.418C626.269 208.118 626.151 207.734 626.182 207.348L626.573 204.002C626.573 203.912 626.573 203.867 626.573 203.836C626.542 203.816 626.505 203.806 626.468 203.806C626.431 203.806 626.394 203.816 626.362 203.836L623.604 205.826C623.459 205.946 623.289 206.033 623.107 206.079C622.925 206.126 622.734 206.132 622.549 206.097C622.359 206.06 622.18 205.981 622.023 205.866C621.867 205.751 621.738 205.604 621.645 205.434C621.527 205.265 621.453 205.068 621.429 204.863C621.405 204.658 621.433 204.45 621.509 204.258C621.58 204.089 621.687 203.936 621.822 203.811C621.957 203.686 622.118 203.592 622.293 203.535L625.383 202.133C625.473 202.133 625.518 202.088 625.518 201.998C625.518 201.998 625.518 201.907 625.383 201.877L622.293 200.475C622.111 200.412 621.946 200.307 621.813 200.168C621.679 200.029 621.58 199.861 621.524 199.676C621.469 199.494 621.452 199.303 621.473 199.114C621.493 198.925 621.552 198.742 621.645 198.576C621.738 198.406 621.867 198.259 622.023 198.144C622.18 198.03 622.359 197.951 622.549 197.913C622.731 197.876 622.919 197.878 623.1 197.917C623.282 197.955 623.453 198.031 623.604 198.139L626.362 200.174C626.394 200.194 626.431 200.205 626.468 200.205C626.505 200.205 626.542 200.194 626.573 200.174C626.573 200.174 626.649 200.174 626.573 200.008L626.182 196.662C626.162 196.469 626.183 196.275 626.243 196.091C626.303 195.906 626.4 195.737 626.528 195.592C626.659 195.452 626.818 195.343 626.995 195.27C627.172 195.197 627.362 195.163 627.553 195.17C627.742 195.166 627.929 195.205 628.101 195.283C628.272 195.361 628.424 195.477 628.546 195.621C628.667 195.766 628.755 195.936 628.802 196.118C628.849 196.301 628.855 196.492 628.819 196.677L628.518 200.098C628.518 200.189 628.518 200.234 628.518 200.264C628.552 200.284 628.591 200.295 628.631 200.295C628.671 200.295 628.71 200.284 628.744 200.264L631.487 198.275C631.637 198.153 631.812 198.066 632 198.019C632.187 197.972 632.383 197.967 632.572 198.003C632.76 198.037 632.937 198.114 633.089 198.23C633.241 198.345 633.364 198.495 633.446 198.667C633.566 198.835 633.642 199.031 633.668 199.236C633.694 199.441 633.67 199.649 633.597 199.842C633.522 200.009 633.413 200.159 633.279 200.283C633.144 200.408 632.986 200.504 632.813 200.566L629.709 201.967C629.633 201.967 629.588 202.043 629.588 202.088C629.588 202.133 629.588 202.194 629.709 202.224L632.813 203.625C632.993 203.695 633.156 203.803 633.292 203.94C633.427 204.078 633.531 204.243 633.597 204.424C633.659 204.607 633.677 204.801 633.651 204.992C633.625 205.183 633.555 205.365 633.446 205.525C633.364 205.696 633.241 205.846 633.089 205.961C632.937 206.077 632.76 206.154 632.572 206.188C632.386 206.225 632.193 206.224 632.007 206.185C631.82 206.146 631.643 206.07 631.487 205.962L628.744 203.927C628.71 203.907 628.671 203.897 628.631 203.897C628.591 203.897 628.552 203.907 628.518 203.927C628.518 203.927 628.518 204.002 628.518 204.093L628.895 207.439C628.929 207.629 628.919 207.826 628.864 208.012C628.809 208.197 628.711 208.368 628.578 208.509C628.426 208.64 628.248 208.737 628.056 208.794C627.864 208.852 627.662 208.867 627.463 208.841Z" fill="#434956"/>
</svg>
