<svg width="35" height="35" viewBox="0 0 35 35" fill="none" xmlns="http://www.w3.org/2000/svg">
<path d="M10.5 17.5C9.53351 17.5 8.75 18.2835 8.75 19.25C8.75 20.2165 9.53351 21 10.5 21H24.5C25.4665 21 26.25 20.2165 26.25 19.25C26.25 18.2835 25.4665 17.5 24.5 17.5H10.5Z" fill="white"/>
<path d="M8.75 26.25C8.75 25.2835 9.53351 24.5 10.5 24.5H17.5C18.4665 24.5 19.25 25.2835 19.25 26.25C19.25 27.2165 18.4665 28 17.5 28H10.5C9.53351 28 8.75 27.2165 8.75 26.25Z" fill="white"/>
<path fill-rule="evenodd" clip-rule="evenodd" d="M8.75 0C9.71649 0 10.5 0.78351 10.5 1.75V3.5H24.5V1.75C24.5 0.78351 25.2835 0 26.25 0C27.2165 0 28 0.78351 28 1.75V3.67503C31.9939 4.48576 35 8.01682 35 12.25V26.25C35 31.0825 31.0825 35 26.25 35H8.75C3.91752 35 0 31.0825 0 26.25V12.25C0 8.01682 3.00608 4.48576 7 3.67503V1.75C7 0.78351 7.78351 0 8.75 0ZM31.5 14H3.5V26.25C3.5 29.1496 5.85051 31.5 8.75 31.5H26.25C29.1496 31.5 31.5 29.1496 31.5 26.25V14Z" fill="white"/>
</svg>
