<svg width="35" height="35" viewBox="0 0 35 35" fill="none" xmlns="http://www.w3.org/2000/svg">
<path fill-rule="evenodd" clip-rule="evenodd" d="M17.5 0C20.6109 0 23.6806 0.84 26.3797 2.42736L25.3359 4.20206C22.9517 2.8 20.2423 2.0588 17.5 2.0588C8.9847 2.0588 2.05882 8.98468 2.05882 17.5C2.05882 26.0153 8.9847 32.9412 17.5 32.9412C26.0153 32.9412 32.9412 26.0153 32.9412 17.5C32.9412 14.7556 32.2 12.0462 30.7979 9.66204L32.5706 8.62028C34.16 11.3194 35 14.3891 35 17.5C35 27.1497 27.1497 35 17.5 35C7.8503 35 0 27.1497 0 17.5C0 7.8503 7.8503 0 17.5 0ZM17.5 6.17648V8.23528C12.3921 8.23528 8.2353 12.3921 8.2353 17.5C8.2353 22.6079 12.3921 26.7647 17.5 26.7647C22.6079 26.7647 26.7647 22.6079 26.7647 17.5H28.8235C28.8235 23.7444 23.7424 28.8235 17.5 28.8235C11.2576 28.8235 6.17648 23.7444 6.17648 17.5C6.17648 11.2556 11.2576 6.17648 17.5 6.17648ZM17.5 12.3529V14.4118C15.7974 14.4118 14.4118 15.7974 14.4118 17.5C14.4118 19.2026 15.7974 20.5882 17.5 20.5882C19.2026 20.5882 20.5882 19.2026 20.5882 17.5H22.647C22.647 20.3371 20.3391 22.6471 17.5 22.6471C14.6609 22.6471 12.3529 20.3371 12.3529 17.5C12.3529 14.6629 14.6609 12.3529 17.5 12.3529ZM33.2393 0.30018L34.6969 1.75578L24.1016 12.3529H28.8235V14.4118H20.5882V6.17648H22.647V10.8961L33.2393 0.30018Z" fill="white"/>
</svg>
