<svg width="59" height="59" viewBox="0 0 59 59" fill="none" xmlns="http://www.w3.org/2000/svg">
<path d="M14.75 36.875C14.3626 36.8749 13.9789 36.9512 13.621 37.0994C13.263 37.2476 12.9378 37.4649 12.6638 37.7388C12.3899 38.0128 12.1726 38.338 12.0244 38.696C11.8761 39.0539 11.7999 39.4376 11.8 39.825V45.0828C7.9976 40.7826 5.89914 35.2402 5.90001 29.5C5.89947 28.6325 5.95141 27.7657 6.05557 26.9044C6.10333 26.5192 6.07461 26.1284 5.97107 25.7544C5.86752 25.3804 5.69119 25.0304 5.45216 24.7247C5.21314 24.4189 4.91612 24.1633 4.57814 23.9726C4.24016 23.7818 3.86786 23.6596 3.48257 23.613C3.09727 23.5664 2.70657 23.5962 2.33284 23.7009C1.95912 23.8055 1.60971 23.9829 1.30466 24.2228C0.999605 24.4628 0.744896 24.7605 0.55513 25.0991C0.365363 25.4376 0.244269 25.8103 0.198787 26.1957C0.0651621 27.2921 -0.00121855 28.3956 1.69312e-05 29.5C0.00402516 36.5392 2.53394 43.3432 7.12978 48.675H2.95001C2.16763 48.675 1.41728 48.9858 0.864051 49.539C0.310819 50.0923 1.69312e-05 50.8426 1.69312e-05 51.625C1.69312e-05 52.4074 0.310819 53.1577 0.864051 53.711C1.41728 54.2642 2.16763 54.575 2.95001 54.575H14.75C15.2114 54.5692 15.6647 54.4533 16.0722 54.2368C16.4797 54.0204 16.8296 53.7097 17.0927 53.3307C17.1271 53.2853 17.171 53.2516 17.203 53.2038C17.2227 53.1745 17.2232 53.1397 17.2416 53.1098C17.3822 52.8723 17.4875 52.6157 17.5543 52.3479C17.5979 52.1974 17.629 52.0436 17.647 51.888C17.6555 51.7969 17.7001 51.7184 17.7001 51.6251V39.8251C17.7002 39.4377 17.624 39.054 17.4758 38.696C17.3275 38.3381 17.1102 38.0128 16.8363 37.7388C16.5623 37.4649 16.2371 37.2476 15.8791 37.0994C15.5211 36.9511 15.1375 36.8749 14.75 36.875ZM19.175 11.8H13.9167C18.2172 7.9978 23.7597 5.89937 29.5 5.90003C30.3671 5.89795 31.2335 5.94992 32.0942 6.05562C32.479 6.10234 32.8691 6.07282 33.2425 5.96875C33.6158 5.86468 33.965 5.68809 34.2701 5.44907C34.5752 5.21004 34.8302 4.91327 35.0206 4.57568C35.2111 4.2381 35.3331 3.86632 35.3798 3.48157C35.4265 3.09682 35.397 2.70663 35.293 2.33329C35.1889 1.95994 35.0123 1.61075 34.7733 1.30565C34.5342 1.00056 34.2375 0.745524 33.8999 0.55512C33.5623 0.364716 33.1905 0.242669 32.8058 0.195947C31.7088 0.063613 30.6049 -0.00181068 29.5 3.81074e-05C22.4609 0.0038646 15.6569 2.53359 10.325 7.12927V2.95004C10.325 2.16765 10.0142 1.4173 9.46098 0.864073C8.90774 0.31084 8.1574 3.81074e-05 7.37501 3.81074e-05C6.59263 3.81074e-05 5.84228 0.31084 5.28905 0.864073C4.73582 1.4173 4.42501 2.16765 4.42501 2.95004V14.75C4.44357 14.945 4.48243 15.1375 4.54098 15.3244L4.54169 15.328C4.61332 15.691 4.75476 16.0367 4.95814 16.3458L4.99183 16.3956C5.18675 16.6791 5.43106 16.9253 5.7131 17.1223C5.74535 17.1459 5.76136 17.1821 5.79485 17.2046C5.837 17.2325 5.8847 17.2414 5.92774 17.2669C6.09504 17.3676 6.27232 17.4506 6.45674 17.5147C6.70597 17.6014 6.96582 17.6539 7.22916 17.6706C7.28029 17.6733 7.32333 17.7001 7.37501 17.7001H19.175C19.9574 17.7001 20.7077 17.3893 21.261 16.8361C21.8142 16.2829 22.125 15.5325 22.125 14.7501C22.125 13.9677 21.8142 13.2174 21.261 12.6642C20.7077 12.1109 19.9574 11.8 19.175 11.8ZM54.4583 43.6721C54.3868 43.3089 54.2452 42.9632 54.0417 42.6541L54.0084 42.6045C53.8133 42.3209 53.5688 42.0746 53.2865 41.8775C53.2543 41.8541 53.2385 41.8177 53.2051 41.7954C53.1733 41.7743 53.1355 41.7736 53.1031 41.7538C52.7289 41.5458 52.3188 41.4102 51.8944 41.3543C51.8011 41.3454 51.7206 41.2999 51.625 41.2999H39.825C39.0426 41.2999 38.2923 41.6107 37.739 42.1639C37.1858 42.7171 36.875 43.4675 36.875 44.2499C36.875 45.0323 37.1858 45.7826 37.739 46.3358C38.2923 46.8891 39.0426 47.1999 39.825 47.1999H45.0831C40.7827 51.0021 35.2403 53.1006 29.5 53.0999C28.6328 53.101 27.7664 53.0481 26.9058 52.9414C26.1287 52.8471 25.346 53.0652 24.7299 53.548C24.1137 54.0307 23.7145 54.7384 23.6202 55.5155C23.5258 56.2925 23.744 57.0752 24.2267 57.6914C24.7094 58.3076 25.4172 58.7067 26.1942 58.8011C27.2912 58.9334 28.3951 58.9998 29.5 58.9999C36.5391 58.996 43.3431 56.4663 48.675 51.8707V56.05C48.675 56.8324 48.9858 57.5827 49.539 58.136C50.0923 58.6892 50.8426 59 51.625 59C52.4074 59 53.1577 58.6892 53.711 58.136C54.2642 57.5827 54.575 56.8324 54.575 56.05V44.25C54.5564 44.055 54.5176 43.8625 54.459 43.6757L54.4583 43.6721ZM56.05 10.325C56.8324 10.325 57.5827 10.0142 58.136 9.461C58.6892 8.90777 59 8.15742 59 7.37503C59 6.59265 58.6892 5.8423 58.136 5.28907C57.5827 4.73584 56.8324 4.42504 56.05 4.42504H44.25C44.0579 4.44355 43.8683 4.48181 43.6841 4.5392L43.6644 4.54315C43.3062 4.61482 42.965 4.75455 42.6594 4.95477L42.6016 4.99382C42.3194 5.18846 42.0743 5.43201 41.878 5.71298C41.8547 5.74484 41.819 5.7605 41.797 5.79345C41.7759 5.82513 41.7752 5.8626 41.7554 5.89481C41.5448 6.27121 41.4083 6.68443 41.3531 7.11216C41.3447 7.20329 41.3 7.28178 41.3 7.37503V19.175C41.3 19.9574 41.6108 20.7078 42.164 21.261C42.7173 21.8142 43.4676 22.125 44.25 22.125C45.0324 22.125 45.7827 21.8142 46.336 21.261C46.8892 20.7078 47.2 19.9574 47.2 19.175V13.9155C51.0021 18.2165 53.1005 23.7593 53.1 29.4999C53.1005 30.3674 53.0486 31.2343 52.9444 32.0956C52.8509 32.8721 53.0693 33.6539 53.5516 34.2696C54.0339 34.8853 54.7407 35.2846 55.517 35.3797C55.6366 35.3936 55.7568 35.4003 55.8771 35.3999C56.5974 35.3989 57.2925 35.1344 57.8312 34.6563C58.3698 34.1781 58.7149 33.5193 58.8012 32.8042C58.9348 31.7079 59.0012 30.6044 59 29.5C58.9959 22.4608 56.4659 15.6568 51.8698 10.325H56.05Z" fill="white"/>
</svg>
