<svg width="62" height="61" viewBox="0 0 62 61" fill="none" xmlns="http://www.w3.org/2000/svg">
<path d="M40.9552 54.5947H21.6309V60.6972H40.9552V54.5947Z" fill="white"/>
<path d="M13.6644 0.132975L0 13.7974L3.59589 17.3933L17.2603 3.72887L13.6644 0.132975Z" fill="white"/>
<path d="M48.1838 7.32955e-05L44.5879 3.59595L58.2523 17.2604L61.8482 13.6645L48.1838 7.32955e-05Z" fill="white"/>
<path d="M43.5502 7.51088L40.8129 7.39486C40.0236 7.28345 39.2192 7.35699 38.4632 7.60968C37.7072 7.86238 37.0203 8.2873 36.4566 8.85094L30.8582 14.4494L25.0064 8.59761C24.4984 8.1012 23.8645 7.75279 23.1731 7.58989C22.4817 7.42699 21.759 7.45578 21.0827 7.67315C20.4448 7.86716 19.7661 7.88419 19.1192 7.72239C18.4723 7.5606 17.8816 7.22608 17.4101 6.75458L16.5416 5.88613L5.75391 16.6738L7.5114 18.4313L7.39538 21.1684C7.28397 21.9577 7.35751 22.7621 7.61019 23.5181C7.86288 24.2741 8.2878 24.9611 8.85143 25.5247L18.6279 35.3012C18.7586 34.0179 19.3735 32.8326 20.3475 31.9867L17.3014 28.9406L18.0206 28.2215L21.2022 31.4031C21.6532 31.1464 22.1412 30.9609 22.6489 30.8533V27.0963L20.8973 25.3448L21.6165 24.6255L22.6489 25.6579V20.2168C22.6375 19.3174 22.9567 18.4451 23.5459 17.7655C24.1351 17.0859 24.9532 16.6462 25.8451 16.5299C26.1814 16.4972 26.5207 16.5126 26.8528 16.5754L25.6023 15.325L26.3215 14.6058L28.1483 16.4326C28.4719 15.8057 28.9724 15.2876 29.5877 14.9426C30.2031 14.5976 30.9062 14.4408 31.6098 14.4918C32.4589 14.5909 33.2466 14.9841 33.8364 15.603C34.4261 16.2219 34.7807 17.0277 34.8388 17.8806C35.4168 17.6059 36.0574 17.4894 36.6952 17.543C37.6015 17.6515 38.4352 18.0927 39.0346 18.7811C39.6339 19.4695 39.9563 20.356 39.939 21.2686V24.7509C40.8647 24.9442 41.7181 25.3915 42.4037 26.0428C43.0892 26.6941 43.5798 27.5234 43.8203 28.4379L46.6564 25.6018L47.3756 26.321L44.0037 29.6929C44.0038 29.7068 44.0074 29.7199 44.0074 29.7339V33.1107C44.9211 33.015 45.7748 32.6101 46.4269 31.9629L53.3838 25.006C53.8802 24.4979 54.2286 23.8641 54.3915 23.1727C54.5544 22.4813 54.5256 21.7585 54.3082 21.0823C54.1142 20.4443 54.0972 19.7656 54.259 19.1187C54.4208 18.4719 54.7553 17.8811 55.2268 17.4096L56.0952 16.5411L45.3076 5.75342L43.5502 7.51088Z" fill="white"/>
<path d="M28.6231 19.6984C28.5458 19.0376 28.2118 18.4338 27.693 18.0173C27.1743 17.6008 26.5126 17.4051 25.8508 17.4724C25.2088 17.5609 24.6218 17.8823 24.2013 18.3755C23.7809 18.8686 23.5563 19.499 23.5702 20.1469V31.6981C22.4913 31.6981 21.4565 32.1267 20.6935 32.8897C19.9306 33.6526 19.502 34.6874 19.502 35.7664V45.605C19.5102 46.3153 19.7121 47.0099 20.0858 47.6139C20.4595 48.218 20.9909 48.7087 21.6228 49.0331C22.2111 49.3471 22.703 49.8149 23.046 50.3867C23.389 50.9585 23.5702 51.6128 23.5702 52.2796V53.5078H38.8263V51.0225L40.8438 49.169C41.4807 48.6896 41.9975 48.0689 42.3534 47.3556C42.7093 46.6423 42.8946 45.8561 42.8946 45.059V29.664C42.8946 28.585 42.466 27.5502 41.703 26.7873C40.9401 26.0243 39.9053 25.5957 38.8263 25.5957V21.1993C38.8436 20.5411 38.6167 19.8997 38.1892 19.3987C37.7618 18.8978 37.1641 18.5727 36.5113 18.4862C35.8706 18.4296 35.2323 18.6187 34.7258 19.015C34.2192 19.4114 33.8823 19.9856 33.7832 20.6211H34.2495V36.3281H33.2324V20.6211H33.7409V18.1481C33.7582 17.4898 33.5313 16.8485 33.1039 16.3475C32.6764 15.8466 32.0788 15.5215 31.426 15.435C31.0743 15.4034 30.7199 15.4454 30.3853 15.5584C30.0507 15.6713 29.7434 15.8527 29.4828 16.0909C29.2221 16.3292 29.014 16.6191 28.8716 16.9422C28.7292 17.2653 28.6556 17.6146 28.6556 17.9677V19.6984H29.1641V35.4054H28.1471V19.6984H28.6231ZM23.9762 40.3964H22.9591V32.2598H23.9762V40.3964ZM38.3178 25.9115H39.3348V36.5331H38.3178V25.9115Z" fill="white"/>
</svg>
