<svg width="189" height="56" viewBox="0 0 189 56" fill="none" xmlns="http://www.w3.org/2000/svg">
<path d="M44.8436 20H30.165V1.12348H33.2078V17.2671H44.8436V20ZM49.8535 20H46.8107V1.12348H49.8535V20ZM55.7139 20H52.6711V1.12348H67.6878V3.85635H55.7139V9.71652H67.2652V12.4212H55.7139V20ZM85.0508 20H69.9496V1.12348H85.0508V3.85635H72.9924V9.15304H84.6282V11.8577H72.9924V17.2671H85.0508V20ZM101.505 20.2817C95.5883 20.2817 91.6722 16.4501 91.6722 10.5617C91.6722 4.67339 95.5883 0.841737 101.505 0.841737C107.478 0.841737 111.366 4.67339 111.366 10.5617C111.366 16.4501 107.478 20.2817 101.505 20.2817ZM101.505 17.3517C105.985 17.3517 108.154 15.2668 108.154 10.5617C108.154 5.85669 105.985 3.74365 101.505 3.74365C97.0252 3.74365 94.884 5.85669 94.884 10.5617C94.884 15.2668 97.0252 17.3517 101.505 17.3517ZM116.656 20H113.614V1.12348H128.63V3.85635H116.656V9.71652H128.208V12.4212H116.656V20ZM137.679 20H134.298L142.722 1.12348H147.005L155.429 20H151.992L149.822 15.0977H139.849L137.679 20ZM143.624 6.61739L141.06 12.3649H148.611L146.047 6.61739L144.948 3.94087H144.723L143.624 6.61739ZM10.478 55H1.88497V36.1235H10.478C16.3382 36.1235 20.029 39.7297 20.029 45.5617C20.029 51.3937 16.3382 55 10.478 55ZM10.478 38.8563H4.89958V52.2671H10.478C14.845 52.2671 16.8171 50.4077 16.8171 45.5617C16.8171 40.7158 14.845 38.8563 10.478 38.8563ZM24.2683 55H20.8874L29.3114 36.1235H33.5938L42.0178 55H38.5806L36.4112 50.0977H26.4377L24.2683 55ZM30.213 41.6174L27.6491 47.3649H35.1997L32.6359 41.6174L31.5371 38.9409H31.3117L30.213 41.6174ZM53.1184 55H50.1037V48.4918L41.8206 36.1235H45.5396L49.991 42.8289L51.5688 45.2237H51.7942L53.3437 42.8289L57.767 36.1235H61.5142L53.1184 48.5482V55ZM65.7288 55H62.686V36.1235H65.7288V55ZM71.5892 55H68.5464V36.1235H71.8146L80.2668 47.1677L82.7179 50.6894H82.9433L82.8024 47.2803V36.1235H85.8452V55H82.577L74.0685 43.984L71.7019 40.6595H71.4765L71.5892 43.9277V55ZM97.3364 55.2817C91.7862 55.2817 88.0954 51.4501 88.0954 45.5617C88.0954 39.6734 92.0679 35.8417 98.0971 35.8417C103.45 35.8417 107.169 38.5464 107.169 42.9134V43.1388H103.816V42.9134C103.816 40.2087 101.929 38.7436 98.0126 38.7436C93.4766 38.7436 91.3072 40.8567 91.3072 45.5617C91.3072 50.2668 93.4484 52.3517 97.8717 52.3517C102.38 52.3517 104.155 51.112 104.155 47.9283V47.6748H97.1674V45.3645H107.169V55H104.408V50.9148H104.211C103.422 53.6758 101.027 55.2817 97.3364 55.2817ZM117.592 55H114.549V36.1235H123.79C127.988 36.1235 130.862 38.5183 130.862 42.7162C130.862 46.8859 127.988 49.3089 123.79 49.3089H117.592V55ZM123.508 38.8563H117.592V46.576H123.508C126.354 46.576 127.819 45.5054 127.819 42.7162C127.819 39.927 126.354 38.8563 123.508 38.8563ZM141.95 55.2817C136.033 55.2817 132.117 51.4501 132.117 45.5617C132.117 39.6734 136.033 35.8417 141.95 35.8417C147.923 35.8417 151.811 39.6734 151.811 45.5617C151.811 51.4501 147.923 55.2817 141.95 55.2817ZM141.95 52.3517C146.429 52.3517 148.599 50.2668 148.599 45.5617C148.599 40.8567 146.429 38.7436 141.95 38.7436C137.47 38.7436 135.329 40.8567 135.329 45.5617C135.329 50.2668 137.47 52.3517 141.95 52.3517ZM169.16 55H154.059V36.1235H169.16V38.8563H157.101V44.153H168.737V46.8577H157.101V52.2671H169.16V55ZM180.912 55H177.897V38.8563H170.459V36.1235H188.321V38.8563H180.912V55Z" fill="#2B2C2F"/>
</svg>
