<svg width="17" height="26" viewBox="0 0 17 26" fill="none" xmlns="http://www.w3.org/2000/svg">
<path d="M10.6241 9.20392e-05C11.3045 2.68003 9.4761 4.11172 7.68909 5.51099C6.79803 6.20873 5.91725 6.89842 5.36296 7.73079C4.22793 9.43485 5.91977 11.2659 8.22505 13.3458C8.02126 12.8851 7.70693 12.4375 7.38873 11.9843C6.30342 10.4387 5.17277 8.82853 8.22668 6.4167C13.143 2.53557 10.633 0.00908615 10.6241 9.20392e-05Z" fill="#2B2C2F"/>
<path d="M9.01309 14.1985C9.01309 14.1985 10.4948 12.9828 9.32138 11.6319V11.6318C5.34377 7.04866 13.6717 4.96875 13.6717 4.96875C8.59402 7.91357 9.27368 8.85758 10.4617 10.5077C10.515 10.5817 10.5693 10.6572 10.6242 10.7343C11.9926 12.6604 9.01309 14.1985 9.01309 14.1985Z" fill="#2B2C2F"/>
<path d="M2.83678 12.2987C2.72891 12.435 2.64066 12.6171 2.64066 12.7034C2.64066 12.8906 2.4837 12.9053 2.24989 12.74C2.00797 12.569 1.38544 12.5633 1.34145 12.7318C1.31978 12.8148 1.41071 12.9066 1.59667 12.9893C1.85179 13.1027 1.87889 13.1458 1.82852 13.3577C1.75982 13.6466 1.88936 13.7893 2.28154 13.8565C2.6009 13.9113 3.01746 13.7777 3.01746 13.6203C3.01746 13.5665 3.09377 13.5224 3.18706 13.5224C3.54059 13.5224 3.7566 13.0549 3.44601 12.9618C3.33477 12.9284 3.35662 12.8536 3.56377 12.5588C3.78288 12.247 3.79853 12.1868 3.67691 12.1249C3.37535 11.9717 3.04073 12.0409 2.83678 12.2987ZM9.48152 14.9388C9.6133 15.499 8.59918 16.1682 7.61201 16.1724C4.54551 16.1854 2.89946 18.8237 5.57442 19.4381C5.90951 19.5152 6.41692 19.635 6.70188 19.7044C9.30449 20.3387 12.7312 19.9459 12.7312 19.0133C12.7312 18.5919 12.667 18.5633 12.2947 18.8186C11.2923 19.506 6.6206 19.317 5.5572 18.546C4.68797 17.9157 5.55352 17.1059 7.31422 16.9023C8.57496 16.7566 9.17891 16.6205 9.61207 16.3847C10.0707 16.1351 10.1362 16.1579 10.2464 16.6058C10.2842 16.7592 10.2516 16.9947 10.1623 17.2128C9.99087 17.6316 10.046 17.6546 10.4431 17.33C11.2179 16.6966 11.0519 15.6152 10.0801 14.9654C9.57214 14.6258 9.40625 14.6184 9.48152 14.9388ZM14.4717 14.9257C14.4333 15.0201 14.4668 15.1272 14.5595 15.2073C14.7538 15.3751 14.7486 15.4102 14.5208 15.4567C14.3839 15.4848 14.3326 15.5571 14.3326 15.7228C14.3326 15.9014 14.3731 15.9504 14.5208 15.9504C14.6246 15.9504 14.7093 15.9827 14.7093 16.0221C14.7093 16.2186 15.8543 16.4617 16.0826 16.3137C16.2426 16.21 16.2585 15.9391 16.1118 15.8244C16.0348 15.7643 16.0885 15.6856 16.3138 15.5285C16.9477 15.086 16.3712 14.7107 15.5436 15.0269C15.3214 15.1118 15.2652 15.1035 15.0254 14.9503C14.6905 14.7365 14.5512 14.7302 14.4717 14.9257ZM2.49212 17.0383C2.43051 17.0689 2.33375 17.1893 2.27696 17.306L2.1737 17.5181L1.98587 17.3605C1.77664 17.1851 1.46056 17.103 1.13717 17.14C0.792261 17.1794 0.817892 17.3319 1.22241 17.6479C1.50881 17.8715 1.59415 17.9921 1.57297 18.1427C1.51538 18.5508 2.23043 18.5857 2.71218 18.1982C3.04785 17.9283 3.13232 17.6427 2.87647 17.6427C2.76823 17.6427 2.74515 17.606 2.79555 17.514C3.03456 17.0775 2.88506 16.8431 2.49212 17.0383Z" fill="#2B2C2F"/>
<path d="M3.31037 19.2205C2.36632 19.6233 2.18659 21.042 2.996 21.7019C4.06833 22.5761 9.88573 23.0717 12.8723 22.5433C12.9757 22.525 13.1396 22.5075 13.2366 22.5044C13.6612 22.4908 14.144 21.9592 14.144 21.5055V21.0836L13.7692 21.348C12.6169 22.1611 6.77215 22.2173 4.586 21.4363C3.43162 21.024 2.94646 19.8703 3.66344 19.2429C3.84885 19.0808 3.66534 19.0691 3.31037 19.2205Z" fill="#2B2C2F"/>
<path d="M0.677532 21.8752C-0.136174 22.5999 -0.239929 24.2068 0.491449 24.7578C0.733246 24.94 1.54302 25.2522 2.25389 25.462C2.59978 25.564 2.88096 25.6241 3.15665 25.6831L3.21893 25.6964C4.55236 25.9822 7.94594 26.0545 11.2125 25.9623C14.8154 25.8607 15.8557 25.6393 16.3413 24.8711C16.4528 24.6951 16.6016 24.1194 16.5357 24.1194C16.5228 24.1194 16.3349 24.1982 16.1182 24.2945C15.6467 24.5043 14.8777 24.7167 14.0016 24.8792C13.2701 25.0147 9.27756 25.0405 7.40003 24.9218C3.73301 24.7578 2.85257 24.5463 1.65764 23.9447C0.811368 23.3108 0.628048 22.754 0.98551 21.9036C1.08288 21.672 1.15272 21.4824 1.14056 21.4824C1.1285 21.4824 0.920066 21.6592 0.677532 21.8752Z" fill="#2B2C2F"/>
</svg>
