<svg width="21" height="21" viewBox="0 0 21 21" fill="none" xmlns="http://www.w3.org/2000/svg">
<path d="M20.3877 4.75075C20.3953 4.77875 20.3991 4.80761 20.3992 4.83661V9.34421C20.3992 9.40206 20.3839 9.45889 20.3549 9.50895C20.3259 9.55902 20.2842 9.60054 20.234 9.62932L16.4507 11.8075V16.1249C16.4507 16.2424 16.3883 16.3509 16.2864 16.41L8.38909 20.9562C8.37101 20.9665 8.35129 20.9731 8.33157 20.9801C8.32418 20.9825 8.31719 20.987 8.30939 20.9891C8.25418 21.0036 8.19615 21.0036 8.14095 20.9891C8.13191 20.9866 8.12369 20.9817 8.11506 20.9784C8.09699 20.9718 8.07809 20.9661 8.06084 20.9562L0.165152 16.41C0.114993 16.3812 0.0733165 16.3397 0.0443219 16.2896C0.0153273 16.2396 3.97431e-05 16.1828 0 16.1249L0 2.60213C0 2.57255 0.00410827 2.54379 0.0115032 2.51585C0.0139681 2.5064 0.0197197 2.49778 0.0230063 2.48833C0.0291687 2.47107 0.0349203 2.45341 0.0439585 2.43738C0.0501209 2.4267 0.0591591 2.41807 0.066554 2.40821C0.076003 2.39507 0.0846303 2.38151 0.0957227 2.37001C0.105172 2.36056 0.117497 2.35357 0.128178 2.34536C0.140092 2.3355 0.150773 2.32482 0.164331 2.31701L4.11279 0.0439056C4.16278 0.0151397 4.21944 0 4.27712 0C4.33479 0 4.39146 0.0151397 4.44145 0.0439056L8.3895 2.31701H8.39032C8.40347 2.32523 8.41456 2.3355 8.42647 2.34495C8.43715 2.35316 8.44907 2.36056 8.45852 2.3696C8.47002 2.38151 8.47824 2.39507 8.4881 2.40821C8.49508 2.41807 8.50453 2.4267 8.51028 2.43738C8.51973 2.45382 8.52507 2.47107 8.53164 2.48833C8.53493 2.49778 8.54068 2.5064 8.54315 2.51626C8.55071 2.54426 8.55458 2.57312 8.55465 2.60213V11.0483L11.8446 9.15399V4.8362C11.8446 4.80744 11.8487 4.77828 11.8561 4.75075C11.8589 4.74089 11.8643 4.73226 11.8676 4.72281C11.8741 4.70556 11.8799 4.68789 11.8889 4.67187C11.8951 4.66119 11.9041 4.65256 11.9111 4.6427C11.921 4.62956 11.9292 4.616 11.9407 4.6045C11.9501 4.59505 11.962 4.58806 11.9727 4.57985C11.9851 4.56999 11.9957 4.5593 12.0089 4.5515L15.9578 2.27839C16.0077 2.24959 16.0644 2.23442 16.1221 2.23442C16.1798 2.23442 16.2364 2.24959 16.2864 2.27839L20.2345 4.5515C20.2484 4.55972 20.2591 4.56999 20.2714 4.57944C20.2817 4.58765 20.2936 4.59505 20.3031 4.60408C20.3146 4.616 20.3228 4.62956 20.3326 4.6427C20.34 4.65256 20.3491 4.66119 20.3548 4.67187C20.3643 4.68789 20.3696 4.70556 20.3762 4.72281C20.3799 4.73226 20.3852 4.74089 20.3877 4.75075ZM19.7411 9.15399V5.40561L18.3594 6.20097L16.4507 7.29993V11.0483L19.7415 9.15399H19.7411ZM15.793 15.9347V12.1838L13.9155 13.2561L8.55424 16.3159V20.1021L15.793 15.9347ZM0.658145 3.17112V15.9347L7.89609 20.1017V16.3163L4.11484 14.1764L4.11361 14.1755L4.11197 14.1747C4.09923 14.1673 4.08855 14.1566 4.07664 14.1476C4.06637 14.1394 4.05445 14.1328 4.04541 14.1238L4.04459 14.1225C4.03391 14.1123 4.02652 14.0995 4.01748 14.088C4.00926 14.0769 3.9994 14.0675 3.99283 14.056L3.99242 14.0547C3.98502 14.0424 3.9805 14.0276 3.97516 14.0137C3.96982 14.0013 3.96284 13.9898 3.95955 13.9767C3.95544 13.9611 3.95462 13.9442 3.95298 13.9282C3.95133 13.9159 3.94805 13.9036 3.94805 13.8912V5.06544L2.03976 3.96607L0.658145 3.17112ZM4.27753 0.708624L0.988039 2.60213L4.27671 4.49563L7.56579 2.60171L4.27671 0.708624H4.27753ZM5.98821 12.5257L7.8965 11.4271V3.17112L6.51489 3.96648L4.60619 5.06544V13.3214L5.98821 12.5257ZM16.1221 2.94311L12.833 4.83661L16.1221 6.73011L19.4108 4.8362L16.1221 2.94311ZM15.793 7.29993L13.8843 6.20097L12.5027 5.40561V9.15399L14.411 10.2525L15.793 11.0483V7.29993ZM8.22476 15.7469L13.0491 12.9928L15.4607 11.6165L12.174 9.72422L8.38991 11.9028L4.94102 13.8884L8.22476 15.7469Z" fill="black"/>
</svg>
