<svg width="20" height="22" viewBox="0 0 20 22" fill="none" xmlns="http://www.w3.org/2000/svg">
<mask id="mask0_3625_21792" style="mask-type:alpha" maskUnits="userSpaceOnUse" x="0" y="0" width="20" height="22">
<path d="M19.2477 8.66127C19.2477 7.373 17.6553 6.1521 15.2137 5.39498C15.7771 2.87389 15.5267 0.868117 14.4233 0.225948C14.1689 0.0753162 13.8716 0.00396206 13.5469 0.00396206V0.887936C13.7268 0.887936 13.8716 0.923614 13.9929 0.990997C14.525 1.30019 14.7559 2.47749 14.5759 3.99173C14.5329 4.36435 14.4625 4.75678 14.3764 5.15714C13.6094 4.96687 12.7721 4.82021 11.8918 4.72507C11.3636 3.99173 10.8158 3.32578 10.264 2.74308C11.5396 1.54199 12.7369 0.883965 13.5508 0.883965V0C12.4747 0 11.0662 0.776943 9.64196 2.12469C8.21766 0.784868 6.80911 0.0158574 5.73312 0.0158574V0.899823C6.54304 0.899823 7.74424 1.55389 9.0198 2.74704C8.472 3.32975 7.92421 3.99173 7.4038 4.72507C6.51951 4.82021 5.6822 4.96687 4.91532 5.1611C4.82529 4.76471 4.7588 4.3802 4.71181 4.01155C4.52799 2.49731 4.75486 1.32 5.28314 1.00685C5.40047 0.9355 5.55306 0.903794 5.73312 0.903794V0.0198195C5.40441 0.0198195 5.10702 0.0911736 4.84883 0.241806C3.7493 0.883966 3.50283 2.88578 4.07014 5.39895C1.63642 6.16003 0.0517578 7.37699 0.0517578 8.66127C0.0517578 9.94963 1.64424 11.1705 4.0858 11.9276C3.52235 14.4487 3.77275 16.4545 4.87621 17.0966C5.13056 17.2472 5.42786 17.3186 5.75657 17.3186C6.83256 17.3186 8.2412 16.5417 9.66541 15.1939C11.0896 16.5338 12.4983 17.3028 13.5743 17.3028C13.9029 17.3028 14.2003 17.2315 14.4585 17.0808C15.558 16.4386 15.8045 14.4368 15.2371 11.9237C17.6631 11.1666 19.2477 9.94564 19.2477 8.66127ZM14.1534 6.01732C14.0086 6.52872 13.8286 7.05585 13.6251 7.58307C13.4647 7.26601 13.2965 6.94886 13.1125 6.63171C12.9326 6.31463 12.7408 6.00544 12.5491 5.70417C13.1047 5.78741 13.6407 5.89048 14.1534 6.01732ZM12.3612 10.2389C12.0561 10.7741 11.7431 11.2815 11.4183 11.7533C10.8353 11.8047 10.2445 11.8325 9.64975 11.8325C9.05891 11.8325 8.46807 11.8047 7.88904 11.7571C7.56426 11.2854 7.24728 10.782 6.9421 10.2508C6.64471 9.73158 6.37479 9.20436 6.12824 8.67324C6.37086 8.14203 6.64471 7.61082 6.93825 7.09157C7.24343 6.55646 7.55639 6.04904 7.88116 5.57732C8.46422 5.52579 9.05497 5.49804 9.64975 5.49804C10.2406 5.49804 10.8314 5.52579 11.4105 5.57336C11.7352 6.04508 12.0522 6.54848 12.3574 7.07969C12.6548 7.59894 12.9247 8.12616 13.1713 8.65737C12.9247 9.18849 12.6548 9.7197 12.3612 10.2389ZM13.6251 9.72369C13.8305 10.2403 14.0107 10.7668 14.1651 11.3013C13.6525 11.4281 13.1125 11.5352 12.553 11.6184C12.7447 11.3132 12.9364 11.0001 13.1165 10.6789C13.2965 10.3619 13.4647 10.0408 13.6251 9.72369ZM9.65753 13.9533C9.29365 13.5726 8.92977 13.1485 8.56982 12.6848C8.92198 12.7006 9.28193 12.7125 9.64581 12.7125C10.0136 12.7125 10.3775 12.7046 10.7336 12.6848C10.3977 13.1269 10.0385 13.5504 9.65753 13.9533ZM6.74647 11.6184C6.19088 11.5352 5.65481 11.4321 5.14228 11.3053C5.28699 10.7939 5.46705 10.2667 5.67048 9.73947C5.83094 10.0566 5.99919 10.3738 6.18301 10.6908C6.36692 11.008 6.55477 11.3171 6.74647 11.6184ZM9.63802 3.36939C10.0019 3.74992 10.3658 4.17408 10.7257 4.63786C10.3736 4.622 10.0136 4.61012 9.64975 4.61012C9.28193 4.61012 8.91804 4.61804 8.56203 4.63786C8.89787 4.1957 9.25706 3.77226 9.63802 3.36939ZM6.74253 5.70417C6.55083 6.0094 6.35913 6.32255 6.17916 6.64359C5.99919 6.96074 5.83094 7.27789 5.67048 7.59495C5.46506 7.07837 5.28487 6.55186 5.13056 6.01732C5.64309 5.89444 6.18301 5.78741 6.74253 5.70417ZM3.20151 10.6671C1.81641 10.0685 0.920389 9.28369 0.920389 8.66127C0.920389 8.03894 1.81641 7.25014 3.20151 6.65556C3.53801 6.50886 3.90583 6.37805 4.28537 6.25517C4.50839 7.03209 4.80184 7.84074 5.16573 8.66925C4.80578 9.49376 4.51618 10.2984 4.2971 11.0714C3.90976 10.9485 3.54194 10.8138 3.20151 10.6671ZM5.30659 16.3316C4.77446 16.0224 4.54356 14.8451 4.72363 13.3308C4.76667 12.9583 4.83702 12.5658 4.92311 12.1654C5.69007 12.3557 6.52738 12.5024 7.40774 12.5975C7.93593 13.3308 8.48373 13.9968 9.03546 14.5795C7.7599 15.7806 6.56255 16.4386 5.74869 16.4386C5.57266 16.4347 5.42401 16.399 5.30659 16.3316ZM14.5877 13.3111C14.7715 14.8253 14.5446 16.0026 14.0164 16.3157C13.899 16.3871 13.7464 16.4188 13.5664 16.4188C12.7565 16.4188 11.5553 15.7648 10.2797 14.5716C10.8275 13.9889 11.3753 13.3269 11.8957 12.5935C12.78 12.4984 13.6173 12.3517 14.3842 12.1575C14.4742 12.5579 14.5446 12.9424 14.5877 13.3111ZM16.094 10.6671C15.7576 10.8138 15.3897 10.9446 15.0102 11.0675C14.7872 10.2905 14.4937 9.48189 14.1298 8.65338C14.4899 7.82887 14.7794 7.02421 14.9985 6.2512C15.3859 6.37409 15.7536 6.50886 16.098 6.65556C17.4831 7.25405 18.3791 8.03894 18.3791 8.66127C18.3752 9.28369 17.4792 10.0725 16.094 10.6671Z" fill="#2B2C2F"/>
<path d="M9.64578 10.4728C10.6334 10.4728 11.434 9.66179 11.434 8.66124C11.434 7.66077 10.6334 6.84973 9.64578 6.84973C8.65825 6.84973 7.85768 7.66077 7.85768 8.66124C7.85768 9.66179 8.65825 10.4728 9.64578 10.4728ZM0.923376 20.4377H0.333103V21.4676H0V18.9217H0.831901C1.11495 18.9217 1.33242 18.987 1.4843 19.1176C1.63734 19.248 1.71386 19.4381 1.71386 19.6875C1.71386 19.8461 1.67128 19.9842 1.58614 20.102C1.50214 20.2197 1.38478 20.3077 1.23405 20.366L1.82432 21.4465V21.4676H1.46877L0.923376 20.4377ZM0.333103 20.1632H0.842261C1.0068 20.1632 1.13739 20.12 1.23405 20.0337C1.33185 19.9475 1.38075 19.8321 1.38075 19.6875C1.38075 19.5302 1.33415 19.4095 1.24095 19.3256C1.1489 19.2417 1.01543 19.1991 0.840528 19.198H0.333103V20.1632ZM2.90479 21.5026C2.65162 21.5026 2.44565 21.4186 2.28687 21.2507C2.12808 21.0817 2.04869 20.8561 2.04869 20.5741V20.5146C2.04869 20.327 2.08378 20.1597 2.15397 20.0128C2.22531 19.8647 2.32426 19.7493 2.45083 19.6666C2.57855 19.5827 2.71663 19.5406 2.86506 19.5406C3.10786 19.5406 3.29658 19.6217 3.43115 19.7837C3.5658 19.9457 3.63308 20.1777 3.63308 20.4796V20.6142H2.36798C2.37259 20.8008 2.4261 20.9518 2.5285 21.0672C2.63205 21.1813 2.76322 21.2385 2.92202 21.2385C3.0348 21.2385 3.13026 21.2152 3.20848 21.1686C3.28678 21.122 3.3552 21.0602 3.41391 20.9832L3.60893 21.1371C3.45241 21.3807 3.21775 21.5026 2.90479 21.5026ZM2.86506 19.8065C2.73619 19.8065 2.62803 19.8542 2.54058 19.9498C2.45313 20.0443 2.39905 20.1772 2.37834 20.3485H3.31382V20.324C3.30463 20.1597 3.26088 20.0326 3.18267 19.9428C3.10436 19.8519 2.99849 19.8065 2.86506 19.8065ZM5.15712 21.4676C5.13866 21.4302 5.1237 21.3638 5.11224 21.2682C4.96376 21.4244 4.78659 21.5026 4.58063 21.5026C4.39654 21.5026 4.24527 21.4501 4.12672 21.3451C4.00939 21.239 3.95068 21.105 3.95068 20.943C3.95068 20.746 4.02435 20.5933 4.1716 20.4849C4.31999 20.3753 4.52831 20.3205 4.79639 20.3205H5.10708V20.1719C5.10708 20.0588 5.07365 19.969 5.00698 19.9026C4.94023 19.835 4.8418 19.8012 4.71178 19.8012C4.59787 19.8012 4.50241 19.8303 4.42533 19.8886C4.34825 19.9469 4.30966 20.0174 4.30966 20.1002H3.98865C3.98865 20.0058 4.02146 19.9149 4.08699 19.8274C4.15375 19.7388 4.24352 19.6689 4.3563 19.6176C4.47021 19.5663 4.59498 19.5406 4.73077 19.5406C4.946 19.5406 5.11451 19.5954 5.23648 19.7051C5.35844 19.8135 5.4217 19.9633 5.42634 20.1544V21.0252C5.42634 21.1989 5.44821 21.337 5.49196 21.4395V21.4676H5.15712ZM4.62726 21.2211C4.72736 21.2211 4.82229 21.1948 4.91205 21.1423C5.00173 21.0899 5.06674 21.0217 5.10708 20.9378V20.5496H4.85676C4.46558 20.5496 4.26994 20.6656 4.26994 20.8975C4.26994 20.9989 4.30337 21.0783 4.37003 21.1353C4.43679 21.1924 4.52253 21.2211 4.62726 21.2211ZM6.67591 21.2385C6.78983 21.2385 6.8894 21.2035 6.97453 21.1336C7.05966 21.0636 7.10682 20.9762 7.116 20.8713H7.41812C7.41234 20.9797 7.37551 21.0829 7.30761 21.1808C7.23972 21.2788 7.14881 21.3568 7.0349 21.4151C6.92212 21.4734 6.80252 21.5026 6.67591 21.5026C6.42166 21.5026 6.21911 21.4169 6.06836 21.2455C5.91884 21.0729 5.84403 20.8375 5.84403 20.5391V20.4849C5.84403 20.3007 5.87736 20.1369 5.94412 19.9936C6.01088 19.8502 6.10633 19.7388 6.23066 19.6596C6.35604 19.5803 6.5039 19.5406 6.67416 19.5406C6.88362 19.5406 7.05738 19.6042 7.19545 19.7313C7.33465 19.8583 7.40884 20.0233 7.41812 20.2261H7.116C7.10682 20.1037 7.0608 20.0034 6.97794 19.9253C6.89631 19.8461 6.79499 19.8065 6.67416 19.8065C6.51195 19.8065 6.38596 19.8659 6.29619 19.9848C6.20765 20.1025 6.16329 20.2733 6.16329 20.4971V20.5583C6.16329 20.7763 6.20765 20.9441 6.29619 21.0619C6.38482 21.1797 6.51143 21.2385 6.67591 21.2385ZM8.21028 19.1176V19.5757H8.55894V19.8257H8.21028V20.9989C8.21028 21.0747 8.22585 21.1318 8.25692 21.1703C8.28798 21.2076 8.34091 21.2263 8.41571 21.2263C8.45246 21.2263 8.50312 21.2193 8.56752 21.2053V21.4676C8.48352 21.4909 8.40189 21.5026 8.32245 21.5026C8.17983 21.5026 8.07222 21.4588 7.99968 21.3714C7.92724 21.284 7.89102 21.1598 7.89102 20.9989V19.8257H7.55093V19.5757H7.89102V19.1176H8.21028ZM11.7916 21.4676H11.4585L10.1934 19.5057V21.4676H9.86031V18.9217H10.1934L11.462 20.8923V18.9217H11.7916V21.4676ZM13.4831 21.4676C13.4646 21.4302 13.4496 21.3638 13.4382 21.2682C13.2897 21.4244 13.1125 21.5026 12.9066 21.5026C12.7225 21.5026 12.5711 21.4501 12.4526 21.3451C12.3353 21.239 12.2766 21.105 12.2766 20.943C12.2766 20.746 12.3502 20.5933 12.4975 20.4849C12.6459 20.3753 12.8542 20.3205 13.1223 20.3205H13.433V20.1719C13.433 20.0588 13.3996 19.969 13.3328 19.9026C13.2662 19.835 13.1677 19.8012 13.0377 19.8012C12.9238 19.8012 12.8283 19.8303 12.7513 19.8886C12.6742 19.9469 12.6356 20.0174 12.6356 20.1002H12.3146C12.3146 20.0058 12.3474 19.9149 12.4129 19.8274C12.4797 19.7388 12.5694 19.6689 12.6822 19.6176C12.7961 19.5663 12.9209 19.5406 13.0567 19.5406C13.2718 19.5406 13.4404 19.5954 13.5624 19.7051C13.6844 19.8135 13.7476 19.9633 13.7523 20.1544V21.0252C13.7523 21.1989 13.7741 21.337 13.8179 21.4395V21.4676H13.4831ZM12.9532 21.2211C13.0533 21.2211 13.1482 21.1948 13.238 21.1423C13.3277 21.0899 13.3927 21.0217 13.433 20.9378V20.5496H13.1827C12.7915 20.5496 12.5959 20.6656 12.5959 20.8975C12.5959 20.9989 12.6293 21.0783 12.696 21.1353C12.7627 21.1924 12.8485 21.2211 12.9532 21.2211ZM14.686 19.1176V19.5757H15.0347V19.8257H14.686V20.9989C14.686 21.0747 14.7016 21.1318 14.7326 21.1703C14.7637 21.2076 14.8166 21.2263 14.8914 21.2263C14.9282 21.2263 14.9788 21.2193 15.0433 21.2053V21.4676C14.9592 21.4909 14.8776 21.5026 14.7982 21.5026C14.6555 21.5026 14.5479 21.4588 14.4754 21.3714C14.403 21.284 14.3667 21.1598 14.3667 20.9989V19.8257H14.0267V19.5757H14.3667V19.1176H14.686ZM15.7561 21.4676H15.4368V19.5757H15.7561V21.4676ZM15.4109 19.0738C15.4109 19.0214 15.4264 18.9771 15.4575 18.9409C15.4897 18.9047 15.5369 18.8868 15.599 18.8868C15.6612 18.8868 15.7083 18.9047 15.7405 18.9409C15.7727 18.9771 15.7888 19.0214 15.7888 19.0738C15.7888 19.1263 15.7727 19.17 15.7405 19.205C15.7083 19.2399 15.6612 19.2574 15.599 19.2574C15.5369 19.2574 15.4897 19.2399 15.4575 19.205C15.4264 19.17 15.4109 19.1263 15.4109 19.0738ZM16.8849 21.0287L17.3474 19.5757H17.6736L17.0039 21.4676H16.7605L16.084 19.5757H16.4102L16.8849 21.0287ZM18.7316 21.5026C18.4785 21.5026 18.2725 21.4186 18.1137 21.2507C17.9549 21.0817 17.8756 20.8561 17.8756 20.5741V20.5146C17.8756 20.327 17.9106 20.1597 17.9808 20.0128C18.0521 19.8647 18.1511 19.7493 18.2777 19.6666C18.4054 19.5827 18.5435 19.5406 18.6919 19.5406C18.9347 19.5406 19.1234 19.6217 19.258 19.7837C19.3926 19.9457 19.46 20.1777 19.46 20.4796V20.6142H18.1948C18.1995 20.8008 18.2529 20.9518 18.3554 21.0672C18.4589 21.1813 18.5901 21.2385 18.7488 21.2385C18.8616 21.2385 18.9571 21.2152 19.0354 21.1686C19.1136 21.122 19.1821 21.0602 19.2408 20.9832L19.4358 21.1371C19.2793 21.3807 19.0445 21.5026 18.7316 21.5026ZM18.6919 19.8065C18.5631 19.8065 18.4548 19.8542 18.3674 19.9498C18.2799 20.0443 18.2259 20.1772 18.2052 20.3485H19.1406V20.324C19.1314 20.1597 19.0877 20.0326 19.0095 19.9428C18.9312 19.8519 18.8254 19.8065 18.6919 19.8065Z" fill="#2B2C2F"/>
</mask>
<g mask="url(#mask0_3625_21792)">
<rect width="34.125" height="30.875" fill="#2B2C2F"/>
</g>
</svg>
