<svg width="23" height="20" viewBox="0 0 23 20" fill="none" xmlns="http://www.w3.org/2000/svg">
<path d="M13.7959 0C23.6385 6.69388 20.4548 14.0758 20.4548 14.0758C20.4548 14.0758 23.2536 17.2362 22.1224 20C22.1224 20 20.9679 18.0641 19.0321 18.0641C17.1662 18.0641 16.07 20 12.3149 20C3.95335 20 0 13.0146 0 13.0146C7.53353 17.9708 12.6764 14.4606 12.6764 14.4606C9.2828 12.4898 2.06414 3.06706 2.06414 3.06706C8.34985 8.41983 11.0671 9.8309 11.0671 9.8309C9.44606 8.4898 4.89796 1.93586 4.89796 1.93586C8.53644 5.62099 15.7668 10.7638 15.7668 10.7638C17.8192 5.07289 13.7959 0 13.7959 0Z" fill="#2B2C2F"/>
</svg>
