<svg width="15" height="15" viewBox="0 0 15 15" fill="none" xmlns="http://www.w3.org/2000/svg">
<path fill-rule="evenodd" clip-rule="evenodd" d="M12.4219 13.5H2.57863C2.04884 13.5 1.65761 12.9772 1.85743 12.4965C2.78457 10.2735 4.9627 8.99999 7.49989 8.99999C10.0378 8.99999 12.216 10.2735 13.1431 12.4965C13.3429 12.9772 12.9517 13.5 12.4219 13.5ZM4.4375 4.49999C4.4375 2.84549 5.81175 1.49999 7.49989 1.49999C9.18879 1.49999 10.5623 2.84549 10.5623 4.49999C10.5623 6.15449 9.18879 7.49999 7.49989 7.49999C5.81175 7.49999 4.4375 6.15449 4.4375 4.49999ZM14.9668 13.227C14.4102 10.7077 12.6692 8.84847 10.3778 8.00472C11.592 7.04697 12.3002 5.4982 12.0399 3.80245C11.7382 1.8352 10.0677 0.260983 8.05112 0.0314826C5.26741 -0.285767 2.9063 1.83674 2.9063 4.49999C2.9063 5.91749 3.57697 7.18047 4.62277 8.00472C2.33058 8.84847 0.590373 10.7077 0.033018 13.227C-0.1691 14.1427 0.584249 15 1.54048 15H13.4593C14.4163 15 15.1696 14.1427 14.9668 13.227Z" fill="#28B781"/>
</svg>
