<svg width="17" height="19" viewBox="0 0 17 19" fill="none" xmlns="http://www.w3.org/2000/svg">
<path d="M16 7.5625V4.75C16 3.71447 15.1606 2.875 14.125 2.875H2.875C1.83947 2.875 1 3.71447 1 4.75V7.5625M16 7.5625V16C16 17.0356 15.1606 17.875 14.125 17.875H2.875C1.83947 17.875 1 17.0356 1 16V7.5625M16 7.5625H1M4.75 1V4.75M12.25 1V4.75" stroke="#28B781" stroke-width="1.875" stroke-linecap="round"/>
<path d="M3.34375 9.90625H5.21875V11.7812H3.34375V9.90625Z" fill="#28B781" stroke="#28B781" stroke-width="0.9375"/>
<path d="M7.5625 9.90625H9.4375V11.7812H7.5625V9.90625Z" fill="#28B781" stroke="#28B781" stroke-width="0.9375"/>
<path d="M11.7812 9.90625H13.6562V11.7812H11.7812V9.90625Z" fill="#28B781" stroke="#28B781" stroke-width="0.9375"/>
</svg>
