<svg width="19" height="16" viewBox="0 0 19 16" fill="none" xmlns="http://www.w3.org/2000/svg">
<path d="M17.7171 9.1384C17.998 8.85715 18.1558 8.4759 18.1558 8.0784C18.1558 7.6809 17.998 7.29965 17.7171 7.0184L12.0611 1.3594C11.7797 1.07801 11.398 0.919922 11.0001 0.919922C10.6021 0.919922 10.2205 1.07801 9.93908 1.3594C9.65769 1.6408 9.4996 2.02245 9.4996 2.4204C9.4996 2.81835 9.65769 3.20001 9.93908 3.4814L13.0351 6.5784L1.50008 6.5784C1.10226 6.5784 0.720728 6.73644 0.439422 7.01774C0.158117 7.29905 8.17205e-05 7.68058 8.17031e-05 8.0784C8.16857e-05 8.47623 0.158117 8.85776 0.439422 9.13906C0.720728 9.42037 1.10226 9.5784 1.50008 9.5784L13.0351 9.5784L9.93908 12.6744C9.79975 12.8137 9.68922 12.9791 9.61382 13.1612C9.53841 13.3432 9.4996 13.5384 9.4996 13.7354C9.4996 13.9324 9.53841 14.1276 9.61382 14.3096C9.68922 14.4917 9.79975 14.6571 9.93908 14.7964C10.0784 14.9357 10.2438 15.0463 10.4259 15.1217C10.6079 15.1971 10.803 15.2359 11.0001 15.2359C11.1971 15.2359 11.3922 15.1971 11.5743 15.1217C11.7563 15.0463 11.9217 14.9357 12.0611 14.7964L17.7171 9.1384Z" fill="white"/>
</svg>
