<svg width="19" height="16" viewBox="0 0 19 16" fill="none" xmlns="http://www.w3.org/2000/svg">
<path d="M0.438681 9.1384C0.15778 8.85715 3.30282e-07 8.4759 3.12907e-07 8.0784C2.95532e-07 7.6809 0.15778 7.29965 0.43868 7.0184L6.09468 1.3594C6.37607 1.07801 6.75773 0.919922 7.15568 0.919922C7.55363 0.919922 7.93529 1.07801 8.21668 1.3594C8.49808 1.6408 8.65616 2.02245 8.65616 2.4204C8.65616 2.81835 8.49808 3.20001 8.21668 3.4814L5.12068 6.5784L16.6557 6.5784C17.0535 6.5784 17.435 6.73644 17.7163 7.01774C17.9976 7.29905 18.1557 7.68058 18.1557 8.0784C18.1557 8.47623 17.9976 8.85776 17.7163 9.13906C17.435 9.42037 17.0535 9.5784 16.6557 9.5784L5.12068 9.5784L8.21668 12.6744C8.35601 12.8137 8.46654 12.9791 8.54194 13.1612C8.61735 13.3432 8.65616 13.5384 8.65616 13.7354C8.65616 13.9324 8.61735 14.1276 8.54194 14.3096C8.46654 14.4917 8.35601 14.6571 8.21668 14.7964C8.07735 14.9357 7.91194 15.0463 7.72989 15.1217C7.54784 15.1971 7.35273 15.2359 7.15568 15.2359C6.95864 15.2359 6.76352 15.1971 6.58147 15.1217C6.39942 15.0463 6.23401 14.9357 6.09468 14.7964L0.438681 9.1384Z" fill="white"/>
</svg>
