<svg width="38" height="33" viewBox="0 0 38 33" fill="none" xmlns="http://www.w3.org/2000/svg">
<path fill-rule="evenodd" clip-rule="evenodd" d="M16.8502 5.83463C16.8502 8.17821 14.9504 10.0781 12.6067 10.0781C10.2631 10.0781 8.36328 8.17821 8.36328 5.83463C8.36328 3.49104 10.2631 1.59119 12.6067 1.59119C14.9504 1.59119 16.8502 3.49104 16.8502 5.83463Z" stroke="white" stroke-width="3.18258" stroke-linecap="round" stroke-linejoin="round"/>
<path fill-rule="evenodd" clip-rule="evenodd" d="M23.2172 23.8694C23.2172 27.9707 18.4667 31.2954 12.6086 31.2954C6.75053 31.2954 2 27.9707 2 23.8694C2 19.7681 6.75053 16.4434 12.6086 16.4434C18.4667 16.4434 23.2172 19.7681 23.2172 23.8694Z" stroke="white" stroke-width="3.18258" stroke-linecap="round" stroke-linejoin="round"/>
<path d="M28.5855 0.466073C27.9641 -0.155358 26.9567 -0.155358 26.3352 0.466073C25.7138 1.0875 25.7138 2.09507 26.3352 2.7165L28.5855 0.466073ZM30.5787 6.95994C31.2001 7.58137 32.2075 7.58137 32.829 6.95994C33.4504 6.3385 33.4504 5.33094 32.829 4.70951L30.5787 6.95994ZM32.829 4.70951C32.2075 4.08808 31.2001 4.08808 30.5787 4.70951C29.9572 5.33094 29.9572 6.3385 30.5787 6.95994L32.829 4.70951ZM34.8221 11.2034C35.4436 11.8248 36.451 11.8248 37.0724 11.2034C37.6939 10.5819 37.6939 9.57438 37.0724 8.95295L34.8221 11.2034ZM32.829 6.95994C33.4504 6.3385 33.4504 5.33094 32.829 4.70951C32.2075 4.08808 31.2001 4.08808 30.5787 4.70951L32.829 6.95994ZM26.3352 8.95295C25.7138 9.57438 25.7138 10.5819 26.3352 11.2034C26.9567 11.8248 27.9641 11.8248 28.5855 11.2034L26.3352 8.95295ZM30.5787 4.70951C29.9572 5.33094 29.9572 6.3385 30.5787 6.95994C31.2001 7.58137 32.2075 7.58137 32.829 6.95994L30.5787 4.70951ZM37.0724 2.7165C37.6939 2.09507 37.6939 1.0875 37.0724 0.466073C36.451 -0.155358 35.4436 -0.155358 34.8221 0.466073L37.0724 2.7165ZM26.3352 2.7165L30.5787 6.95994L32.829 4.70951L28.5855 0.466073L26.3352 2.7165ZM30.5787 6.95994L34.8221 11.2034L37.0724 8.95295L32.829 4.70951L30.5787 6.95994ZM30.5787 4.70951L26.3352 8.95295L28.5855 11.2034L32.829 6.95994L30.5787 4.70951ZM32.829 6.95994L37.0724 2.7165L34.8221 0.466073L30.5787 4.70951L32.829 6.95994Z" fill="white"/>
</svg>
