<svg width="36" height="36" viewBox="0 0 36 36" fill="none" xmlns="http://www.w3.org/2000/svg">
<path d="M35.1925 15.6975L32.7629 12.8541C32.313 12.3142 31.9351 11.3064 31.9351 10.5865V7.52707C31.9351 5.61943 30.3694 4.05373 28.4617 4.05373H25.4023C24.6824 4.05373 23.6566 3.67581 23.1167 3.22588L20.2733 0.796337C19.0315 -0.265446 16.9979 -0.265446 15.7561 0.796337L12.8766 3.22588C12.3367 3.67581 11.3289 4.05373 10.609 4.05373H7.49559C5.58795 4.05373 4.02224 5.61943 4.02224 7.52707V10.5865C4.02224 11.2884 3.66231 12.2962 3.2124 12.8361L0.782853 15.6975C-0.260951 16.9573 -0.260951 18.9729 0.782853 20.1967L3.2124 23.0581C3.66231 23.58 4.02224 24.6058 4.02224 25.3077V28.3851C4.02224 30.2928 5.58795 31.8585 7.49559 31.8585H10.627C11.3289 31.8585 12.3547 32.2364 12.8946 32.6863L15.7381 35.1159C16.9799 36.1777 19.0135 36.1777 20.2553 35.1159L23.0987 32.6863C23.6386 32.2364 24.6464 31.8585 25.3663 31.8585H28.4257C30.3334 31.8585 31.8991 30.2928 31.8991 28.3851V25.3257C31.8991 24.6058 32.277 23.598 32.7269 23.0581L35.1565 20.2147C36.2543 18.9909 36.2543 16.9573 35.1925 15.6975ZM16.6379 11.0004C16.6379 10.2626 17.2498 9.65069 17.9877 9.65069C18.7256 9.65069 19.3374 10.2626 19.3374 11.0004V19.6928C19.3374 20.4306 18.7256 21.0425 17.9877 21.0425C17.2498 21.0425 16.6379 20.4306 16.6379 19.6928V11.0004ZM17.9877 26.7294C16.9979 26.7294 16.188 25.9196 16.188 24.9298C16.188 23.94 16.9799 23.1301 17.9877 23.1301C18.9775 23.1301 19.7874 23.94 19.7874 24.9298C19.7874 25.9196 18.9955 26.7294 17.9877 26.7294Z" fill="white"/>
</svg>
