<svg width="39" height="39" viewBox="0 0 39 39" fill="none" xmlns="http://www.w3.org/2000/svg">
<path d="M10.75 23L14.7626 18.9874C15.446 18.304 16.554 18.304 17.2374 18.9874L20.0126 21.7626C20.696 22.446 21.804 22.446 22.4874 21.7626L28.25 16M28.25 16V20.375M28.25 16H23.875" stroke="white" stroke-width="2.625" stroke-linecap="round" stroke-linejoin="round"/>
<path d="M37 19.5C37 27.7495 37 31.8744 34.4371 34.4371C31.8744 37 27.7495 37 19.5 37C11.2504 37 7.12563 37 4.56282 34.4371C2 31.8744 2 27.7495 2 19.5C2 11.2504 2 7.12563 4.56282 4.56282C7.12563 2 11.2504 2 19.5 2C27.7495 2 31.8744 2 34.4371 4.56282C36.1413 6.26687 36.7123 8.66146 36.9036 12.5" stroke="white" stroke-width="2.625" stroke-linecap="round"/>
</svg>
