<svg width="35" height="35" viewBox="0 0 35 35" fill="none" xmlns="http://www.w3.org/2000/svg">
<g clip-path="url(#clip0_150_46535)">
<path d="M0 28.455C0 30.275 0.653333 31.8267 1.96 33.11C3.26667 34.3933 4.80667 35.0233 6.58 35H28.455C30.2517 35 31.7917 34.3583 33.075 33.075C34.3583 31.7917 35 30.2517 35 28.455V6.58C35 4.76 34.3583 3.20833 33.075 1.925C31.7917 0.641667 30.2517 0 28.455 0H24.08V4.375H28.455C29.0383 4.375 29.5517 4.59667 29.995 5.04C30.4383 5.48333 30.6483 5.99667 30.625 6.58V28.455C30.625 29.0617 30.415 29.575 29.995 29.995C29.575 30.415 29.0617 30.625 28.455 30.625H6.58C5.97333 30.625 5.44833 30.415 5.005 29.995C4.56167 29.575 4.35167 29.0617 4.375 28.455V6.58C4.375 5.97333 4.585 5.46 5.005 5.04C5.425 4.62 5.95 4.39833 6.58 4.375H10.955V0H6.58C4.76 0 3.20833 0.641667 1.925 1.925C0.641667 3.20833 0 4.76 0 6.58L0 28.455ZM6.58 28.455H28.455L24.08 21.875H10.955L6.58 28.455ZM10.955 8.75L17.5 17.5L24.08 8.75H19.705V0H15.33V8.75H10.955Z" fill="white"/>
</g>
<defs>
<clipPath id="clip0_150_46535">
<rect width="35" height="35" fill="white"/>
</clipPath>
</defs>
</svg>
