<svg width="35" height="37" viewBox="0 0 35 37" fill="none" xmlns="http://www.w3.org/2000/svg">
<path d="M7.42145 35.623C7.42145 36.3402 8.00292 36.9217 8.7202 36.9217C9.43748 36.9217 10.019 36.3402 10.019 35.623H7.42145ZM10.019 30.0569C10.019 29.3396 9.43748 28.7581 8.7202 28.7581C8.00292 28.7581 7.42145 29.3396 7.42145 30.0569H10.019ZM0 35.623C0 36.3402 0.581471 36.9217 1.29875 36.9217C2.01604 36.9217 2.59751 36.3402 2.59751 35.623H0ZM18.9247 22.0788C19.642 22.0788 20.2234 21.4973 20.2234 20.7801C20.2234 20.0628 19.642 19.4813 18.9247 19.4813V22.0788ZM32.3429 11.5032L33.5973 11.1671C33.508 10.8344 33.2904 10.5507 32.9922 10.3785C32.6939 10.2063 32.3393 10.1596 32.0067 10.2487L32.3429 11.5032ZM26.9376 11.607C26.2448 11.7926 25.8337 12.5048 26.0194 13.1976C26.2049 13.8904 26.917 14.3016 27.61 14.116L26.9376 11.607ZM32.4466 16.9083C32.6321 17.6013 33.3442 18.0124 34.0372 17.8267C34.73 17.641 35.1411 16.9289 34.9554 16.2361L32.4466 16.9083ZM33.0399 13.0753C33.3958 12.4525 33.1794 11.6592 32.5566 11.3033C31.9339 10.9474 31.1406 11.1638 30.7847 11.7866L33.0399 13.0753ZM27.074 18.2803C26.718 18.9032 26.9345 19.6965 27.5571 20.0524C28.18 20.4082 28.9733 20.1919 29.3292 19.5691L27.074 18.2803ZM10.019 35.623V30.0569H7.42145V35.623H10.019ZM22.2643 8.7202C22.2643 12.1017 19.523 14.8429 16.1416 14.8429V17.4404C20.9576 17.4404 24.8619 13.5362 24.8619 8.7202H22.2643ZM16.1416 14.8429C12.7603 14.8429 10.019 12.1017 10.019 8.7202H7.42145C7.42145 13.5362 11.3256 17.4404 16.1416 17.4404V14.8429ZM10.019 8.7202C10.019 5.33873 12.7603 2.59751 16.1416 2.59751V0C11.3256 0 7.42145 3.90416 7.42145 8.7202H10.019ZM16.1416 2.59751C19.523 2.59751 22.2643 5.33873 22.2643 8.7202H24.8619C24.8619 3.90416 20.9576 0 16.1416 0V2.59751ZM2.59751 35.623V30.9845H0V35.623H2.59751ZM11.5032 22.0788H18.9247V19.4813H11.5032V22.0788ZM2.59751 30.9845C2.59751 26.066 6.58474 22.0788 11.5032 22.0788V19.4813C5.15017 19.4813 0 24.6314 0 30.9845H2.59751ZM31.5412 27.2738C31.5412 31.1677 28.3846 34.3242 24.4908 34.3242V36.9217C29.8192 36.9217 34.1387 32.6022 34.1387 27.2738H31.5412ZM24.4908 34.3242C20.5969 34.3242 17.4404 31.1677 17.4404 27.2738H14.8429C14.8429 32.6022 19.1624 36.9217 24.4908 36.9217V34.3242ZM17.4404 27.2738C17.4404 23.38 20.5969 20.2234 24.4908 20.2234V17.6259C19.1624 17.6259 14.8429 21.9454 14.8429 27.2738H17.4404ZM24.4908 20.2234C28.3846 20.2234 31.5412 23.38 31.5412 27.2738H34.1387C34.1387 21.9454 29.8192 17.6259 24.4908 17.6259V20.2234ZM32.0067 10.2487L26.9376 11.607L27.61 14.116L32.6789 12.7577L32.0067 10.2487ZM31.0883 11.8394L32.4466 16.9083L34.9554 16.2361L33.5973 11.1671L31.0883 11.8394ZM30.7847 11.7866L27.074 18.2803L29.3292 19.5691L33.0399 13.0753L30.7847 11.7866Z" fill="white"/>
</svg>
