<svg width="35" height="26" viewBox="0 0 35 26" fill="none" xmlns="http://www.w3.org/2000/svg">
<path d="M29.8012 14.7398C32.0235 14.7398 33.8255 12.939 33.8255 10.7166C33.8255 8.49428 32.0235 6.69226 29.8012 6.69226C27.5794 6.69226 25.7773 8.49428 25.7773 10.7166C25.7774 12.939 27.5794 14.7398 29.8012 14.7398Z" fill="white"/>
<path d="M34.9536 18.6175C34.7743 17.54 33.8837 16.032 33.2095 15.3583C33.1207 15.2691 32.7238 15.2484 32.6166 15.3149C31.797 15.819 30.8342 16.1156 29.8009 16.1156C28.7688 16.1156 27.8059 15.819 26.9862 15.3149C26.8786 15.2484 26.4822 15.2691 26.3934 15.3583C26.205 15.5468 25.9993 15.7977 25.7988 16.0886C26.3413 17.1099 26.7714 18.1948 26.9267 19.129C27.0819 20.0655 27.0315 20.9521 26.7805 21.7604C27.6718 22.0828 28.7406 22.2244 29.8009 22.2244C32.5663 22.2244 35.3964 21.2655 34.9536 18.6175Z" fill="white"/>
<path d="M17.3969 13.0421C20.9986 13.0421 23.9186 10.1221 23.9186 6.52052C23.9186 2.92004 20.9986 0 17.3969 0C13.7959 0 10.877 2.92004 10.877 6.52052C10.877 10.1221 13.7958 13.0421 17.3969 13.0421Z" fill="white"/>
<path d="M22.9191 14.041C22.7776 13.9001 22.1349 13.8641 21.9602 13.9722C20.6307 14.7902 19.0706 15.2691 17.3969 15.2691C15.7244 15.2691 14.1635 14.7902 12.8347 13.9722C12.66 13.864 12.0174 13.9001 11.8759 14.041C10.7807 15.135 9.3373 17.5808 9.04691 19.3244C8.33092 23.6191 12.9184 25.1696 17.3969 25.1696C21.8766 25.1696 26.464 23.6191 25.748 19.3244C25.4576 17.5808 24.0142 15.135 22.9191 14.041Z" fill="white"/>
<path d="M5.19821 14.7398C7.42002 14.7398 9.22197 12.939 9.22197 10.7166C9.22197 8.49428 7.42002 6.69226 5.19821 6.69226C2.97578 6.69226 1.17383 8.49428 1.17383 10.7166C1.17383 12.939 2.97578 14.7398 5.19821 14.7398Z" fill="white"/>
<path d="M7.86778 19.129C8.0328 18.1478 8.49839 16.9925 9.08211 15.9243C8.91942 15.7021 8.75679 15.5085 8.60667 15.3583C8.51787 15.2691 8.12153 15.2484 8.01386 15.3149C7.19416 15.819 6.23132 16.1156 5.19869 16.1156C4.16592 16.1156 3.20246 15.819 2.38345 15.3149C2.27626 15.2484 1.87882 15.2691 1.79002 15.3583C1.11415 16.032 0.225823 17.54 0.0459016 18.6175C-0.396246 21.2655 2.43328 22.2243 5.19869 22.2243C6.18559 22.2243 7.1822 22.1028 8.0328 21.8251C7.76476 21.0003 7.70802 20.093 7.86778 19.129Z" fill="white"/>
</svg>
