<svg width="90" height="91" viewBox="0 0 90 91" fill="none" xmlns="http://www.w3.org/2000/svg">
<g clip-path="url(#clip0_1946_102780)">
<path d="M45 90.5C69.8528 90.5 90 70.3528 90 45.5C90 20.6472 69.8528 0.5 45 0.5C20.1472 0.5 0 20.6472 0 45.5C0 70.3528 20.1472 90.5 45 90.5Z" fill="#FF2147"/>
<path d="M45.0002 54.5C43.3706 54.4999 41.8042 53.8693 40.6291 52.7401C39.4541 51.611 38.7616 50.0709 38.6967 48.4426L37.8652 27.4473C37.8319 26.5986 37.9702 25.752 38.2719 24.958C38.5737 24.1641 39.0326 23.4393 39.6212 22.8271C40.2098 22.2148 40.916 21.7277 41.6974 21.395C42.4789 21.0622 43.3194 20.8907 44.1687 20.8906H45.8316C46.6809 20.8907 47.5215 21.0622 48.3029 21.395C49.0843 21.7277 49.7905 22.2148 50.3791 22.8271C50.9678 23.4393 51.4267 24.1641 51.7284 24.958C52.0302 25.752 52.1685 26.5986 52.1351 27.4473L51.3037 48.4426C51.2388 50.0709 50.5463 51.611 49.3712 52.7401C48.1962 53.8693 46.6298 54.4999 45.0002 54.5Z" fill="white"/>
<path d="M51.2986 63.8109C51.2986 60.3325 48.4788 57.5127 45.0004 57.5127C41.522 57.5127 38.7021 60.3325 38.7021 63.8109C38.7021 67.2894 41.522 70.1092 45.0004 70.1092C48.4788 70.1092 51.2986 67.2894 51.2986 63.8109Z" fill="white"/>
</g>
<defs>
<clipPath id="clip0_1946_102780">
<rect width="90" height="90" fill="white" transform="translate(0 0.5)"/>
</clipPath>
</defs>
</svg>
