<svg width="90" height="91" viewBox="0 0 90 91" fill="none" xmlns="http://www.w3.org/2000/svg">
<g clip-path="url(#clip0_1946_102811)">
<path d="M45 0.5C69.8528 0.5 90 20.6472 90 45.5C90 70.3528 69.8528 90.5 45 90.5C20.1472 90.5 0 70.3528 0 45.5C0 20.6472 20.1472 0.5 45 0.5Z" fill="#00DEFF"/>
<path d="M45.0002 36.5C43.3706 36.5001 41.8042 37.1307 40.6291 38.2599C39.4541 39.389 38.7616 40.9291 38.6967 42.5574L37.8652 63.5527C37.8319 64.4014 37.9702 65.248 38.2719 66.042C38.5737 66.8359 39.0326 67.5607 39.6212 68.1729C40.2098 68.7852 40.916 69.2723 41.6974 69.605C42.4789 69.9378 43.3194 70.1093 44.1687 70.1094H45.8316C46.6809 70.1093 47.5215 69.9378 48.3029 69.605C49.0843 69.2723 49.7905 68.7852 50.3791 68.1729C50.9678 67.5607 51.4267 66.8359 51.7284 66.042C52.0302 65.248 52.1685 64.4014 52.1351 63.5527L51.3037 42.5574C51.2388 40.9291 50.5463 39.389 49.3712 38.2599C48.1962 37.1307 46.6298 36.5001 45.0002 36.5Z" fill="white"/>
<path d="M51.2986 27.1891C51.2986 30.6675 48.4788 33.4873 45.0004 33.4873C41.522 33.4873 38.7021 30.6675 38.7021 27.1891C38.7021 23.7106 41.522 20.8908 45.0004 20.8908C48.4788 20.8908 51.2986 23.7106 51.2986 27.1891Z" fill="white"/>
</g>
<defs>
<clipPath id="clip0_1946_102811">
<rect width="90" height="90" fill="white" transform="matrix(1 0 0 -1 0 90.5)"/>
</clipPath>
</defs>
</svg>
