<svg width="90" height="91" viewBox="0 0 90 91" fill="none" xmlns="http://www.w3.org/2000/svg">
<path d="M45 0.5C69.8528 0.5 90 20.6472 90 45.5C90 70.3528 69.8528 90.5 45 90.5C20.1472 90.5 0 70.3528 0 45.5C0 20.6472 20.1472 0.5 45 0.5Z" fill="#20C18E"/>
<path d="M42.6909 68.674C42.5317 68.674 42.3743 68.6411 42.2285 68.5773C42.0826 68.5135 41.9516 68.4202 41.8436 68.3033L18.9989 43.592C18.8466 43.4272 18.7457 43.2216 18.7084 43.0004C18.6711 42.7792 18.6992 42.5519 18.7891 42.3463C18.879 42.1408 19.0269 41.9659 19.2146 41.8431C19.4024 41.7203 19.6219 41.6549 19.8462 41.6549H30.8424C31.0075 41.6549 31.1706 41.6903 31.3209 41.7588C31.4711 41.8272 31.6049 41.9271 31.7133 42.0517L39.348 50.8352C40.1732 49.0715 41.7704 46.1347 44.5734 42.5562C48.717 37.2658 56.4245 29.4853 69.6111 22.4616C69.866 22.3259 70.1625 22.2906 70.4421 22.3629C70.7217 22.4351 70.964 22.6095 71.1212 22.8517C71.2785 23.0939 71.3392 23.3862 71.2914 23.671C71.2436 23.9558 71.0907 24.2123 70.863 24.3899C70.8127 24.4292 65.7284 28.4331 59.877 35.7668C54.4918 42.5157 47.3331 53.551 43.8105 67.7976C43.7487 68.0479 43.6047 68.2702 43.4017 68.4292C43.1987 68.5881 42.9483 68.6745 42.6905 68.6745L42.6909 68.674Z" fill="white"/>
</svg>
