<svg width="17" height="16" viewBox="0 0 17 16" fill="none" xmlns="http://www.w3.org/2000/svg">
<path d="M3.56768 1.77857C3.56745 2.25004 3.37928 2.7021 3.04458 3.03532C2.70987 3.36853 2.25605 3.55559 1.78295 3.55536C1.30984 3.55512 0.856212 3.36761 0.521844 3.03406C0.187476 2.70051 -0.000236329 2.24826 2.23302e-07 1.77679C0.000236775 1.30532 0.188403 0.853255 0.523106 0.520042C0.857808 0.186829 1.31163 -0.000235512 1.78473 2.22531e-07C2.25784 0.000235957 2.71147 0.187753 3.04584 0.521299C3.3802 0.854845 3.56792 1.3071 3.56768 1.77857ZM3.6212 4.87173H0.0535154V16H3.6212V4.87173ZM9.25813 4.87173H5.70829V16H9.22246V10.1603C9.22246 6.90717 13.4769 6.60497 13.4769 10.1603V16H17V8.9515C17 3.46736 10.703 3.6718 9.22246 6.36498L9.25813 4.87173Z" fill="#A2A2A2"/>
</svg>
