<svg width="14" height="18" viewBox="0 0 14 18" fill="none" xmlns="http://www.w3.org/2000/svg">
<path d="M14 7.66928C14 9.63545 13.3685 11.435 12.2196 12.743C11.0707 14.051 9.68587 14.6675 8.21739 14.6675C7.03804 14.6675 6.17826 14.3176 5.56196 13.8927L4.84674 17.2252C4.80027 17.4456 4.68693 17.6422 4.52524 17.7829C4.36355 17.9236 4.16307 18.0001 3.95652 18C3.88741 17.9999 3.81852 17.9916 3.75109 17.975C3.63414 17.9455 3.52365 17.8911 3.42593 17.8149C3.32821 17.7386 3.24518 17.642 3.18158 17.5306C3.11798 17.4192 3.07506 17.2951 3.05528 17.1655C3.0355 17.0359 3.03925 16.9033 3.0663 16.7753L5.50109 5.44484C5.52807 5.31684 5.57781 5.1959 5.64747 5.08894C5.71713 4.98199 5.80535 4.8911 5.90709 4.82147C6.00883 4.75185 6.1221 4.70484 6.24043 4.68315C6.35876 4.66145 6.47983 4.66549 6.59674 4.69503C6.71364 4.72457 6.82409 4.77904 6.92177 4.85531C7.01945 4.93159 7.10246 5.02819 7.16605 5.13959C7.22964 5.25099 7.27256 5.37502 7.29237 5.50458C7.31219 5.63415 7.3085 5.76672 7.28152 5.89473L6.02609 11.7266C6.29239 12.0765 6.93913 12.668 8.21739 12.668C10.1652 12.668 12.1739 10.8018 12.1739 7.66928C12.1732 6.78461 11.9832 5.91242 11.6193 5.12258C11.2554 4.33274 10.7276 3.6472 10.0782 3.12087C9.42877 2.59454 8.67583 2.24206 7.87964 2.09165C7.08346 1.94125 6.26617 1.9971 5.49324 2.25473C4.72031 2.51237 4.01323 2.96463 3.42864 3.57529C2.84404 4.18594 2.39818 4.93802 2.12676 5.77128C1.85535 6.60454 1.76593 7.49582 1.86566 8.37372C1.96539 9.25163 2.25151 10.0918 2.70109 10.8268C2.77832 10.9352 2.83431 11.0599 2.86555 11.193C2.8968 11.3261 2.90263 11.4649 2.88269 11.6006C2.86275 11.7364 2.81746 11.8661 2.74965 11.9818C2.68184 12.0975 2.59297 12.1966 2.48859 12.273C2.38421 12.3494 2.26656 12.4014 2.143 12.4258C2.01944 12.4501 1.89262 12.4463 1.77047 12.4146C1.64831 12.3828 1.53344 12.3239 1.43305 12.2413C1.33265 12.1588 1.24887 12.0545 1.18696 11.9349C0.577591 10.9403 0.18956 9.8032 0.0539836 8.61479C-0.0815932 7.42637 0.0390572 6.2197 0.406259 5.09156C0.77346 3.96341 1.37699 2.94518 2.16846 2.11854C2.95992 1.2919 3.91728 0.679837 4.96377 0.331451C6.01025 -0.0169347 7.11674 -0.0919517 8.19448 0.112416C9.27223 0.316784 10.2912 0.79485 11.1698 1.50827C12.0483 2.22169 12.762 3.15062 13.2535 4.22055C13.745 5.29047 14.0006 6.47163 14 7.66928Z" fill="#A1A1A1"/>
</svg>
