<svg width="63" height="63" viewBox="0 0 63 63" fill="none" xmlns="http://www.w3.org/2000/svg">
<path d="M31.4988 49.8604C30.7229 49.8604 30.0938 50.4899 30.0938 51.2659C30.0938 52.0421 30.7229 52.6715 31.4988 52.6715C32.2752 52.6715 32.9043 52.0421 32.9043 51.2659C32.9043 50.4899 32.2753 49.8604 31.4988 49.8604Z" fill="white"/>
<path d="M56.5587 44.9058H6.44118C2.88372 44.9058 0 47.7667 0 51.3241C0 54.8816 2.88372 57.7425 6.44118 57.7425H56.5588C60.116 57.7425 63 54.8816 63 51.3241C63 47.7667 60.1159 44.9058 56.5587 44.9058ZM14.825 54.6635C12.9486 54.6635 11.4277 53.142 11.4277 51.2656C11.4277 49.3893 12.9486 47.8678 14.825 47.8678C16.7019 47.8678 18.2228 49.3893 18.2228 51.2656C18.2228 53.142 16.7017 54.6635 14.825 54.6635ZM31.4996 54.6635C29.6232 54.6635 28.1023 53.142 28.1023 51.2656C28.1023 49.3893 29.6232 47.8678 31.4996 47.8678C33.3765 47.8678 34.8974 49.3893 34.8974 51.2656C34.8974 53.142 33.3765 54.6635 31.4996 54.6635ZM48.1746 54.6635C46.298 54.6635 44.7771 53.142 44.7771 51.2656C44.7771 49.3893 46.298 47.8678 48.1746 47.8678C50.0513 47.8678 51.5722 49.3893 51.5722 51.2656C51.5722 53.142 50.0513 54.6635 48.1746 54.6635Z" fill="white"/>
<path d="M48.1751 52.6715C48.9514 52.6715 49.5806 52.0422 49.5806 51.2659C49.5806 50.4896 48.9514 49.8604 48.1751 49.8604C47.3988 49.8604 46.7695 50.4896 46.7695 51.2659C46.7695 52.0422 47.3988 52.6715 48.1751 52.6715Z" fill="white"/>
<path d="M14.8255 52.6715C15.6017 52.6715 16.231 52.0422 16.231 51.2659C16.231 50.4896 15.6017 49.8604 14.8255 49.8604C14.0492 49.8604 13.4199 50.4896 13.4199 51.2659C13.4199 52.0422 14.0492 52.6715 14.8255 52.6715Z" fill="white"/>
<path d="M37.7164 61.2432H17.816C17.3728 61.2432 17.0137 61.643 17.0137 62.086C17.0137 62.5289 17.3728 62.9288 17.816 62.9288H37.7164C38.1594 62.9288 38.5188 62.5289 38.5188 62.086C38.5188 61.643 38.1594 61.2432 37.7164 61.2432Z" fill="white"/>
<path d="M45.1691 61.2432H42.0192C41.5762 61.2432 41.2168 61.643 41.2168 62.086C41.2168 62.5289 41.5761 62.9288 42.0192 62.9288H45.1691C45.612 62.9288 45.9714 62.5289 45.9714 62.086C45.9714 61.643 45.612 61.2432 45.1691 61.2432Z" fill="white"/>
<path d="M51.9532 36.7888C52.8983 37.1356 53.3726 37.6099 53.7196 38.5547C53.8678 38.9586 54.4312 38.9586 54.5794 38.5547C54.9262 37.6099 55.4005 37.1356 56.3458 36.7888C56.7495 36.6404 56.7495 36.0767 56.3458 35.9285C55.4005 35.5818 54.9262 35.1075 54.5794 34.1621C54.4312 33.7585 53.8678 33.7585 53.7196 34.1621C53.3726 35.1075 52.8983 35.5818 51.9532 35.9285C51.5494 36.0767 51.5494 36.6405 51.9532 36.7888Z" fill="white"/>
<path d="M9.23027 2.9739C10.1757 3.32062 10.65 3.79493 10.9967 4.73979C11.1449 5.14369 11.7085 5.14369 11.8567 4.73979C12.2035 3.79493 12.678 3.32062 13.6229 2.9739C14.0268 2.82543 14.0268 2.26178 13.6229 2.11358C12.678 1.76685 12.2035 1.29254 11.8567 0.347166C11.7085 -0.0564772 11.1449 -0.0564772 10.9967 0.347166C10.65 1.29254 10.1757 1.76685 9.23027 2.11358C8.82689 2.26178 8.82689 2.82543 9.23027 2.9739Z" fill="white"/>
<path d="M14.1252 13.7343C14.5208 13.9308 15.0032 13.7803 15.2008 13.3838C18.2444 7.25822 24.3809 3.45816 31.2158 3.45596C33.1905 3.45648 35.1063 3.75704 36.9066 4.35673C37.0158 3.82109 37.2029 3.27482 37.4559 2.80829C35.4854 2.14726 33.3877 1.72754 31.2249 1.72754C31.2222 1.72754 31.2186 1.72754 31.2158 1.72754C31.2129 1.72754 31.2095 1.72754 31.2068 1.72754C23.762 1.72754 17.0792 5.94446 13.7637 12.6164C13.5664 13.0135 13.7285 13.5371 14.1252 13.7343Z" fill="white"/>
<path d="M13.3185 15.9284C12.8907 15.8205 12.4523 16.078 12.3428 16.5076C11.9419 18.079 11.7383 19.7051 11.7383 21.341C11.7383 22.9773 11.9419 24.6034 12.343 26.1748C12.4355 26.5374 12.7617 26.7788 13.1195 26.7788C13.1853 26.7788 13.2518 26.7705 13.3188 26.7532C13.7478 26.6438 14.0071 26.2069 13.8974 25.7775C13.5295 24.3363 13.3429 22.8436 13.3429 21.341C13.3429 19.8388 13.5295 18.3461 13.8977 16.9041C14.007 16.4749 13.7477 16.0381 13.3185 15.9284Z" fill="white"/>
<path d="M31.207 40.7566C31.2081 40.7566 31.2091 40.7566 31.21 40.7566C31.2135 40.7566 31.2186 40.7566 31.2222 40.7566C31.2232 40.7566 31.2243 40.7566 31.2252 40.7566C38.6697 40.7566 45.3524 36.6386 48.6682 29.9665C48.8654 29.5698 48.7033 29.1051 48.3066 28.9079C47.9102 28.7108 47.4281 28.8813 47.231 29.2781C44.1871 35.403 38.0507 39.2136 31.216 39.2159C24.381 39.2136 18.2445 35.4099 15.2009 29.2843C15.0035 28.8874 14.521 28.7266 14.1254 28.9241C13.7285 29.1212 13.5664 29.5691 13.7637 29.966C17.0795 36.6382 23.7622 40.7566 31.207 40.7566Z" fill="white"/>
<path d="M48.5348 16.9037C48.903 18.3457 49.0896 19.8384 49.0896 21.3407C49.0896 22.8433 48.903 24.3359 48.535 25.7772C48.4253 26.2067 48.6847 26.6436 49.1137 26.7529C49.1806 26.7701 49.2471 26.7784 49.313 26.7784C49.6709 26.7784 49.997 26.5371 50.0894 26.1744C50.4906 24.6031 50.6942 22.9769 50.6942 21.3407C50.6942 19.7047 50.4906 18.0786 50.0897 16.5072C49.9803 16.0779 49.5432 15.8196 49.114 15.928C48.6848 16.0377 48.4255 16.4746 48.5348 16.9037Z" fill="white"/>
<path d="M42.2797 10.965C43.337 10.965 44.3206 10.6606 45.1581 10.1419C45.9515 11.1346 46.6487 12.2221 47.2317 13.3954C47.372 13.6776 47.6561 13.841 47.9509 13.841C48.071 13.841 48.1928 13.8141 48.3073 13.7569C48.7042 13.5598 48.8662 13.0783 48.6689 12.6816C48.028 11.3911 47.2596 10.1968 46.3854 9.10707C47.2396 8.14042 47.762 6.87413 47.762 5.48257C47.762 2.45467 45.3072 0 42.2797 0C39.2515 0 36.7969 2.45479 36.7969 5.48257C36.7969 8.51048 39.2517 10.965 42.2797 10.965ZM40.1434 4.58037H41.3186V3.34597C41.3186 2.90304 41.7834 2.54361 42.2263 2.54361C42.6692 2.54361 43.1339 2.90291 43.1339 3.34597V4.58037H44.4157C44.8586 4.58037 45.218 5.04509 45.218 5.48802C45.218 5.93095 44.8587 6.39567 44.4157 6.39567H43.1339V7.61827C43.1339 8.06146 42.6692 8.42062 42.2263 8.42062C41.7834 8.42062 41.3186 8.06146 41.3186 7.61827V6.39567H40.1434C39.7004 6.39567 39.341 5.93095 39.341 5.48802C39.341 5.04509 39.7004 4.58037 40.1434 4.58037Z" fill="white"/>
<path d="M20.2411 18.8051L30.0799 32.4011C30.2726 32.6663 30.5489 32.8557 30.8587 32.9365C30.9729 32.9646 31.0899 32.9824 31.2102 32.9824C31.3302 32.9824 31.4472 32.966 31.5617 32.9382C31.8715 32.8571 32.1505 32.6708 32.3402 32.4055L42.1817 18.8139C42.2263 18.7498 42.2597 18.6772 42.2736 18.6018C42.3073 18.4569 42.2794 18.3031 42.1956 18.1776L39.7986 14.4926C39.6955 14.3363 39.5198 14.1753 39.3328 14.1753H33.8191H28.6148H23.1014C22.9143 14.1753 22.7385 14.3365 22.6354 14.4927L20.3195 18.0246L20.2384 18.1521C20.1547 18.2777 20.1268 18.3245 20.1604 18.5839H20.1465C20.1604 18.5839 20.1941 18.7408 20.2411 18.8051ZM37.3963 17.6762H39.1359C39.5791 17.6762 39.9382 18.0113 39.9382 18.4542C39.9382 18.8971 39.5791 19.2322 39.1359 19.2322H37.3963C36.9534 19.2322 36.5939 18.8971 36.5939 18.4542C36.5939 18.0113 36.9534 17.6762 37.3963 17.6762ZM23.3653 17.6762H33.4761C33.9192 17.6762 34.2784 18.0113 34.2784 18.4542C34.2784 18.8971 33.9192 19.2322 33.4761 19.2322H23.3653C22.9223 19.2322 22.5629 18.8971 22.5629 18.4542C22.5629 18.0113 22.9223 17.6762 23.3653 17.6762Z" fill="white"/>
</svg>
