<svg width="64" height="51" viewBox="0 0 64 51" fill="none" xmlns="http://www.w3.org/2000/svg">
<path fill-rule="evenodd" clip-rule="evenodd" d="M30.3158 3.36842C30.3158 1.50811 28.8077 0 26.9474 0C25.087 0 23.5789 1.50811 23.5789 3.36842V37.0526C23.5789 38.913 25.087 40.4211 26.9474 40.4211C28.8077 40.4211 30.3158 38.913 30.3158 37.0526V3.36842ZM20.2105 13.4737C20.2105 11.6134 18.7024 10.1053 16.8421 10.1053C14.9818 10.1053 13.4737 11.6134 13.4737 13.4737V37.0526C13.4737 38.913 14.9818 40.4211 16.8421 40.4211C18.7024 40.4211 20.2105 38.913 20.2105 37.0526V13.4737ZM40.4211 13.4737C40.4211 11.6134 38.913 10.1053 37.0526 10.1053C35.1923 10.1053 33.6842 11.6134 33.6842 13.4737V37.0526C33.6842 38.913 35.1923 40.4211 37.0526 40.4211C38.913 40.4211 40.4211 38.913 40.4211 37.0526V13.4737ZM50.5263 26.9474C50.5263 25.087 49.0183 23.5789 47.1579 23.5789C45.2975 23.5789 43.7895 25.087 43.7895 26.9474V37.0526C43.7895 38.913 45.2975 40.4211 47.1579 40.4211C49.0183 40.4211 50.5263 38.913 50.5263 37.0526V26.9474ZM10.1053 33.6842C10.1053 31.8238 8.59715 30.3158 6.73684 30.3158C4.87653 30.3158 3.36842 31.8238 3.36842 33.6842V37.0526C3.36842 38.913 4.87653 40.4211 6.73684 40.4211C8.59715 40.4211 10.1053 38.913 10.1053 37.0526V33.6842ZM60.6316 33.6842C60.6316 31.8238 59.1235 30.3158 57.2632 30.3158C55.4028 30.3158 53.8947 31.8238 53.8947 33.6842V37.0526C53.8947 38.913 55.4028 40.4211 57.2632 40.4211C59.1235 40.4211 60.6316 38.913 60.6316 37.0526V33.6842ZM3.36842 43.7895C1.50811 43.7895 0 45.2975 0 47.1579C0 49.0183 1.50811 50.5263 3.36842 50.5263H60.6316C62.492 50.5263 64 49.0183 64 47.1579C64 45.2975 62.492 43.7895 60.6316 43.7895H3.36842Z" fill="white"/>
</svg>
