<svg width="59" height="59" viewBox="0 0 59 59" fill="none" xmlns="http://www.w3.org/2000/svg">
<path fill-rule="evenodd" clip-rule="evenodd" d="M7.12069 12.2069H3.05172C2.242 12.2069 1.46584 12.5283 0.894155 13.1011C0.321448 13.6727 0 14.4489 0 15.2586C0 17.8109 0 22.4617 0 27.4655C0 28.027 0.455724 28.4828 1.01724 28.4828C1.57876 28.4828 2.03448 28.027 2.03448 27.4655V15.2586C2.03448 14.9891 2.14129 14.7297 2.33253 14.5394C2.52276 14.3482 2.78216 14.2414 3.05172 14.2414H7.12069V35.6034C7.12069 37.289 8.48685 38.6552 10.1724 38.6552H49.8448C50.6546 38.6552 51.4307 38.3337 52.0024 37.761C52.5751 37.1893 52.8965 36.4132 52.8965 35.6034C52.8965 32.3768 52.8965 26.4483 52.8965 26.4483C52.8965 25.8868 52.4408 25.431 51.8793 25.431C51.3178 25.431 50.8621 25.8868 50.8621 26.4483V35.6034C50.8621 35.873 50.7553 36.1324 50.564 36.3226C50.3738 36.5139 50.1144 36.6207 49.8448 36.6207H10.1724C9.6109 36.6207 9.15517 36.165 9.15517 35.6034V3.05172C9.15517 2.49021 9.6109 2.03448 10.1724 2.03448H49.8448C50.4063 2.03448 50.8621 2.49021 50.8621 3.05172V22.3793C50.8621 22.9408 51.3178 23.3966 51.8793 23.3966C52.4408 23.3966 52.8965 22.9408 52.8965 22.3793V14.2414H55.9483C56.2178 14.2414 56.4772 14.3482 56.6675 14.5394C56.8587 14.7297 56.9655 14.9891 56.9655 15.2586V40.6897H2.03448V31.5345C2.03448 30.973 1.57876 30.5172 1.01724 30.5172C0.455724 30.5172 0 30.973 0 31.5345C0 37.2829 0 42.8808 0 45.7759C0 46.5856 0.321448 47.3617 0.894155 47.9334C1.46584 48.5061 2.242 48.8276 3.05172 48.8276H7.12069C7.68221 48.8276 8.13793 48.3719 8.13793 47.8103C8.13793 47.2488 7.68221 46.7931 7.12069 46.7931H3.05172C2.78216 46.7931 2.52276 46.6863 2.33253 46.4951C2.14129 46.3048 2.03448 46.0454 2.03448 45.7759V42.7241H56.9655V45.7759C56.9655 46.0454 56.8587 46.3048 56.6675 46.4951C56.4772 46.6863 56.2178 46.7931 55.9483 46.7931H11.1897C10.6281 46.7931 10.1724 47.2488 10.1724 47.8103C10.1724 48.3719 10.6281 48.8276 11.1897 48.8276H24.013C23.8502 51.5558 23.1433 55.0806 20.5371 56.9655H18.819C18.2574 56.9655 17.8017 57.4212 17.8017 57.9828C17.8017 58.5443 18.2574 59 18.819 59H40.181C40.7425 59 41.1983 58.5443 41.1983 57.9828C41.1983 57.4212 40.7425 56.9655 40.181 56.9655H38.4629C35.8567 55.0796 35.1498 51.5558 34.987 48.8276H55.9483C56.758 48.8276 57.5342 48.5061 58.1058 47.9334C58.6786 47.3617 59 46.5856 59 45.7759C59 39.6439 59 21.3906 59 15.2586C59 14.4489 58.6786 13.6727 58.1058 13.1011C57.5342 12.5283 56.758 12.2069 55.9483 12.2069H52.8965V3.05172C52.8965 1.36616 51.5304 0 49.8448 0H10.1724C8.48685 0 7.12069 1.36616 7.12069 3.05172V12.2069ZM32.9525 48.8276H26.0475C25.8898 51.4022 25.2489 54.6055 23.4179 56.9655H35.5821C33.7511 54.6055 33.1102 51.4012 32.9525 48.8276ZM26.8877 29.5H25.9397C25.3781 29.5 24.9224 29.9557 24.9224 30.5172C24.9224 31.0788 25.3781 31.5345 25.9397 31.5345H26.1248L25.4961 33.2119C25.2988 33.7378 25.5653 34.3248 26.0912 34.5211C26.6171 34.7184 27.2041 34.4519 27.4004 33.926L28.2976 31.5345H30.7024L31.5996 33.926C31.7959 34.4519 32.3829 34.7184 32.9088 34.5211C33.4347 34.3248 33.7012 33.7378 33.5039 33.2119L32.8752 31.5345H33.0603C33.6219 31.5345 34.0776 31.0788 34.0776 30.5172C34.0776 29.9557 33.6219 29.5 33.0603 29.5H32.1123L30.4521 25.074C30.3036 24.6773 29.9242 24.4138 29.5 24.4138C29.0758 24.4138 28.6964 24.6773 28.5479 25.074L26.8877 29.5ZM29.0606 29.5H29.9394L29.5 28.3281L29.0606 29.5ZM12.5049 19.0295L14.5394 21.064C14.9362 21.4618 15.5811 21.4618 15.9778 21.064L20.0132 17.0296C20.4099 16.6319 20.4099 15.988 20.0132 15.5902C19.6155 15.1935 18.9716 15.1935 18.5738 15.5902L15.2586 18.9064L13.9433 17.5912C13.5466 17.1944 12.9017 17.1944 12.5049 17.5912C12.1082 17.9879 12.1082 18.6328 12.5049 19.0295ZM24.4138 21.3621H38.6552C39.2167 21.3621 39.6724 20.9063 39.6724 20.3448C39.6724 19.7833 39.2167 19.3276 38.6552 19.3276H24.4138C23.8523 19.3276 23.3966 19.7833 23.3966 20.3448C23.3966 20.9063 23.8523 21.3621 24.4138 21.3621ZM24.4138 17.2931H45.7759C46.3374 17.2931 46.7931 16.8374 46.7931 16.2759C46.7931 15.7143 46.3374 15.2586 45.7759 15.2586H24.4138C23.8523 15.2586 23.3966 15.7143 23.3966 16.2759C23.3966 16.8374 23.8523 17.2931 24.4138 17.2931ZM24.4138 11.1897H38.6552C39.2167 11.1897 39.6724 10.7339 39.6724 10.1724C39.6724 9.6109 39.2167 9.15517 38.6552 9.15517H24.4138C23.8523 9.15517 23.3966 9.6109 23.3966 10.1724C23.3966 10.7339 23.8523 11.1897 24.4138 11.1897ZM12.5049 8.85712L14.5394 10.8916C14.9362 11.2893 15.5811 11.2893 15.9778 10.8916L20.0132 6.85722C20.4099 6.45948 20.4099 5.81557 20.0132 5.41783C19.6155 5.0211 18.9716 5.0211 18.5738 5.41783L15.2586 8.73403L13.9433 7.41874C13.5466 7.02202 12.9017 7.02202 12.5049 7.41874C12.1082 7.81547 12.1082 8.4604 12.5049 8.85712ZM24.4138 7.12069H45.7759C46.3374 7.12069 46.7931 6.66497 46.7931 6.10345C46.7931 5.54193 46.3374 5.08621 45.7759 5.08621H24.4138C23.8523 5.08621 23.3966 5.54193 23.3966 6.10345C23.3966 6.66497 23.8523 7.12069 24.4138 7.12069Z" fill="white"/>
</svg>
