<svg width="59" height="59" viewBox="0 0 59 59" fill="none" xmlns="http://www.w3.org/2000/svg">
<g clip-path="url(#clip0_1099_2890)">
<path d="M22.5944 25.374C17.9739 25.374 14.2148 29.1384 14.2148 33.7652C14.2148 36.8504 16.6465 39.3555 16.9235 39.6309C17.3797 40.0843 17.9811 41.0884 18.1761 41.7185L18.8454 44.4625C19.0087 45.1331 19.6097 45.6053 20.3001 45.6053H24.8882C25.5784 45.6053 26.1794 45.1335 26.3429 44.4629L27.0128 41.7179C27.207 41.0896 27.8082 40.0851 28.265 39.6309C28.5422 39.3555 30.9732 36.8502 30.9732 33.7652C30.9736 29.1382 27.2148 25.374 22.5944 25.374ZM26.1536 37.5073C25.3282 38.3281 24.4587 39.7878 24.1308 40.9023C24.1242 40.9247 24.1183 40.9472 24.1127 40.9698L23.7121 42.6106H21.4765L21.0764 40.9702C21.071 40.947 21.0646 40.9241 21.0578 40.9011C20.7286 39.7854 19.8591 38.3263 19.0381 37.5103C18.5295 36.9981 17.2098 35.3272 17.2098 33.7654C17.2098 30.7898 19.6253 28.3691 22.5944 28.3691C25.5632 28.3691 27.9787 30.7898 27.9787 33.7654C27.9787 35.327 26.659 36.9981 26.1536 37.5073Z" fill="white"/>
<path d="M42.3605 0H2.82754C2.00034 0 1.33008 0.670264 1.33008 1.49746V57.5025C1.33008 58.3297 2.00034 59 2.82754 59H42.3605C43.1877 59 43.858 58.3297 43.858 57.5025V1.49746C43.858 0.670264 43.1877 0 42.3605 0ZM40.8631 56.0051H4.325V2.99492H40.8631V56.0051Z" fill="white"/>
<path d="M9.41543 17.5203H35.7708C36.598 17.5203 37.2682 16.8501 37.2682 16.0229V8.08633C37.2682 7.25913 36.598 6.58887 35.7708 6.58887H9.41543C8.58823 6.58887 7.91797 7.25913 7.91797 8.08633V16.0229C7.91797 16.8501 8.58843 17.5203 9.41543 17.5203ZM10.9129 9.58379H34.2733V14.5254H10.9129V9.58379Z" fill="white"/>
<path d="M24.2411 46.9702H20.9467C20.1195 46.9702 19.4492 47.6405 19.4492 48.4677C19.4492 49.2949 20.1195 49.9651 20.9467 49.9651H24.2411C25.0683 49.9651 25.7386 49.2949 25.7386 48.4677C25.7386 47.6405 25.0683 46.9702 24.2411 46.9702Z" fill="white"/>
<path d="M22.6476 50.8638H22.5424C21.7152 50.8638 21.0449 51.534 21.0449 52.3612C21.0449 53.1884 21.7152 53.8587 22.5424 53.8587H22.6476C23.4748 53.8587 24.1451 53.1884 24.1451 52.3612C24.1451 51.534 23.4746 50.8638 22.6476 50.8638Z" fill="white"/>
<path d="M22.6476 23.6102C23.4748 23.6102 24.1451 22.9399 24.1451 22.1127C24.1451 21.2855 23.4748 20.6152 22.6476 20.6152H22.5424C21.7152 20.6152 21.0449 21.2855 21.0449 22.1127C21.0449 22.9399 21.7152 23.6102 22.5424 23.6102H22.6476Z" fill="white"/>
<path d="M15.1587 24.7079C15.1587 23.8807 14.4885 23.2104 13.6613 23.2104H13.5561C12.7289 23.2104 12.0586 23.8807 12.0586 24.7079C12.0586 25.5351 12.7291 26.2054 13.5561 26.2054H13.6613C14.4883 26.2054 15.1587 25.5351 15.1587 24.7079Z" fill="white"/>
<path d="M31.632 23.2104H31.5268C30.6996 23.2104 30.0293 23.8807 30.0293 24.7079C30.0293 25.5351 30.6996 26.2054 31.5268 26.2054H31.632C32.4592 26.2054 33.1294 25.5351 33.1294 24.7079C33.1294 23.8807 32.459 23.2104 31.632 23.2104Z" fill="white"/>
<path d="M35.0265 30.498H34.9213C34.0941 30.498 33.4238 31.1683 33.4238 31.9955C33.4238 32.8227 34.0941 33.493 34.9213 33.493H35.0265C35.8537 33.493 36.524 32.8227 36.524 31.9955C36.524 31.1683 35.8535 30.498 35.0265 30.498Z" fill="white"/>
<path d="M10.8664 30.498H10.7611C9.93414 30.498 9.26367 31.1683 9.26367 31.9955C9.26367 32.8227 9.93414 33.493 10.7611 33.493H10.8664C11.6936 33.493 12.3638 32.8227 12.3638 31.9955C12.3638 31.1683 11.6934 30.498 10.8664 30.498Z" fill="white"/>
<path d="M47.4512 45.0119C47.4512 45.2443 47.5053 45.4737 47.6093 45.6817L51.2204 52.9041C51.4742 53.4112 51.9925 53.7319 52.5597 53.7319C53.127 53.7319 53.6455 53.4114 53.899 52.9041L57.5103 45.6817C57.6143 45.4737 57.6685 45.2443 57.6685 45.0119V9.53359C57.6685 8.7064 56.9982 8.03613 56.171 8.03613H48.9486C48.1214 8.03613 47.4512 8.7064 47.4512 9.53359V45.0119ZM50.4461 43.5144V15.8459H54.6735V43.5144H50.4461ZM54.6735 11.0311V12.851H50.4461V11.0311H54.6735ZM52.5597 48.8859L51.3715 46.5095H53.7479L52.5597 48.8859Z" fill="white"/>
</g>
<defs>
<clipPath id="clip0_1099_2890">
<rect width="59" height="59" fill="white"/>
</clipPath>
</defs>
</svg>
