<svg width="22" height="21" viewBox="0 0 22 21" fill="none" xmlns="http://www.w3.org/2000/svg">
<path d="M4.68921 2.98731C4.68892 3.56528 4.45825 4.11945 4.04795 4.52793C3.63765 4.93641 3.08132 5.16573 2.50135 5.16544C1.92138 5.16515 1.36528 4.93528 0.955391 4.52639C0.545497 4.1175 0.315384 3.5631 0.315674 2.98513C0.315964 2.40717 0.546633 1.85299 0.956937 1.44451C1.36724 1.03604 1.92357 0.806718 2.50354 0.807007C3.0835 0.807296 3.6396 1.03717 4.0495 1.44606C4.45939 1.85494 4.6895 2.40935 4.68921 2.98731ZM4.75482 6.77915H0.381277V20.421H4.75482V6.77915ZM11.665 6.77915H7.31334V20.421H11.6213V13.2623C11.6213 9.27435 16.8367 8.90389 16.8367 13.2623V20.421H21.1556V11.7804C21.1556 5.05757 13.4363 5.30818 11.6213 8.60969L11.665 6.77915Z" fill="url(#paint0_linear_3604_18085)"/>
<defs>
<linearGradient id="paint0_linear_3604_18085" x1="0.315674" y1="2.08272" x2="18.1835" y2="4.67219" gradientUnits="userSpaceOnUse">
<stop stop-color="#1FABD3"/>
<stop offset="1" stop-color="#1CCC97"/>
</linearGradient>
</defs>
</svg>
